/* XPM */
static char * close_inactive_xpm[] = {
"24 26 85 1",
" 	c #FDFDFF",
".	c #FCFDFF",
"+	c #FDFEFF",
"@	c #FCFEFF",
"#	c #FAFCFF",
"$	c #FAFDFF",
"%	c #F9FCFF",
"&	c #F7FBFF",
"*	c #F7FAFF",
"=	c #F4FAFF",
"-	c #F4F9FF",
";	c #F5FAFF",
">	c #F5F9FF",
",	c #F2F8FF",
"'	c #F1F9FF",
")	c #F1F8FF",
"!	c #F2F9FF",
"~	c #EFF7FF",
"{	c #EEF7FF",
"]	c #EEF6FF",
"^	c #EBF6FF",
"/	c #ECF6FF",
"(	c #EBF5FF",
"_	c #ECF5FF",
":	c #E9F5FF",
"<	c #E9F4FF",
"[	c #EAF5FF",
"}	c #E6F3FF",
"|	c #E7F3FF",
"1	c #E6F4FF",
"2	c #E3F2FF",
"3	c #E3F1FF",
"4	c #787C80",
"5	c #E4F2FF",
"6	c #E4F1FF",
"7	c #E1F1FF",
"8	c #E0F1FF",
"9	c #E1F0FF",
"0	c #E0F0FF",
"a	c #DDEFFF",
"b	c #DEEFFF",
"c	c #DEF0FF",
"d	c #DBEEFF",
"e	c #DCEEFF",
"f	c #D9EDFF",
"g	c #D8EDFF",
"h	c #D8ECFF",
"i	c #D9ECFF",
"j	c #D5EBFF",
"k	c #D5ECFF",
"l	c #D6EBFF",
"m	c #D6ECFF",
"n	c #D2EAFF",
"o	c #D3EBFF",
"p	c #D3EAFF",
"q	c #D0E9FF",
"r	c #CFE9FF",
"s	c #CFE8FF",
"t	c #D0E8FF",
"u	c #CDE7FF",
"v	c #CDE8FF",
"w	c #CEE7FF",
"x	c #CBE6FF",
"y	c #CAE7FF",
"z	c #CAE6FF",
"A	c #CBE7FF",
"B	c #C8E5FF",
"C	c #C7E5FF",
"D	c #C8E6FF",
"E	c #C5E4FF",
"F	c #C6E4FF",
"G	c #C5E5FF",
"H	c #C3E3FF",
"I	c #C2E2FF",
"J	c #C2E3FF",
"K	c #C3E2FF",
"L	c #C0E2FF",
"M	c #BFE2FF",
"N	c #C0E1FF",
"O	c #BFE1FF",
"P	c #BDE0FF",
"Q	c #BDE1FF",
"R	c #BBDFFF",
"S	c #BADFFF",
"T	c #E7EEF5",
"  . +.+  +.+.@@  +@++ + ",
"######$#%%###$#######%##",
"&&&&&&*&&&&**&&&*&&&&*&&",
"===-=;;=--=--===---->=--",
",'),)),),,),),)))!,')),)",
"~~{~~~~~{~{~~{~~{{~{]{~~",
"^////(_//////((_^____/_^",
":<<<<<<<<<[<<:<<<<::<<::",
"}|1|}}}}|}}}}}}|}}||}||}",
"223232224456264455556222",
"778777894447844470797879",
"aabbcbcba444444cbbcbbbbb",
"ddddddeddd4444ddddddddde",
"fghiigffhf4444igggggggig",
"jkjlkljjm444444mmkkmlklj",
"nnnonppp444np444ppoonnpp",
"qqqqrqqq44qqss44qqtqqrqq",
"uvvvvvuuwuuvuuvuuuuuvuvv",
"xyzAxzyxAzzzzzzxzxzzAxzx",
"BBCCBCBCDBCBCBCCCCBBBBBC",
"EFFEGFEEEFEEEEFFFFEEFEFF",
"HHHHHHHIHIJKKKHJJHIJIHHJ",
"LMMNLLMLNOLNOLMLMNNNLMNN",
"PPPPPPQPPPPPPPPPQQPQPPPP",
"RSRRRSSSSRSSSSRSSSSRSSSS",
"TTTTTTTTTTTTTTTTTTTTTTTT"};
