/* XPM */
static char * close_prelight_xpm[] = {
"24 26 132 2",
"  	c #F0F1F3",
". 	c #F0F1F4",
"+ 	c #EFF1F3",
"@ 	c #EEEFF2",
"# 	c #EEEFF1",
"$ 	c #EDEFF1",
"% 	c #EDEFF2",
"& 	c #EDF0F1",
"* 	c #EBEDF0",
"= 	c #EBEEF0",
"- 	c #ECEDF0",
"; 	c #EBEEF1",
"> 	c #EBEDF1",
", 	c #E9EBEF",
"' 	c #E9ECEE",
") 	c #E9EBEE",
"! 	c #E9ECEF",
"~ 	c #E7EAED",
"{ 	c #E6E9ED",
"] 	c #E7E9ED",
"^ 	c #E6EAED",
"/ 	c #E4E7EB",
"( 	c #E5E7EC",
"_ 	c #E4E7EC",
": 	c #E4E8EC",
"< 	c #E4E8EB",
"[ 	c #E5E8EB",
"} 	c #E5E7EB",
"| 	c #E5E8EC",
"1 	c #E3E6EA",
"2 	c #E2E6E9",
"3 	c #E2E6EA",
"4 	c #E2E5EA",
"5 	c #E2E5E9",
"6 	c #E0E4E8",
"7 	c #E0E3E9",
"8 	c #E0E3E8",
"9 	c #DFE4E9",
"0 	c #DFE3E9",
"a 	c #DFE4E8",
"b 	c #E0E4E9",
"c 	c #DDE1E7",
"d 	c #DDE2E7",
"e 	c #DEE1E6",
"f 	c #DEE2E7",
"g 	c #DDE2E6",
"h 	c #DEE1E7",
"i 	c #DEE2E6",
"j 	c #DBE0E5",
"k 	c #DBE0E6",
"l 	c #DCE0E5",
"m 	c #787C80",
"n 	c #DCE0E6",
"o 	c #D9DEE4",
"p 	c #D9DEE3",
"q 	c #D8DEE3",
"r 	c #D6DDE2",
"s 	c #D7DDE2",
"t 	c #D7DCE2",
"u 	c #D6DCE2",
"v 	c #D7DCE3",
"w 	c #D4DAE1",
"x 	c #D5DBE0",
"y 	c #D4DAE0",
"z 	c #D5DBE1",
"A 	c #D5DAE0",
"B 	c #D4DBE1",
"C 	c #D5DAE1",
"D 	c #D4DBE0",
"E 	c #D2D8DF",
"F 	c #D3D9DF",
"G 	c #D2D9DF",
"H 	c #D3D8DF",
"I 	c #D0D6DE",
"J 	c #D0D6DD",
"K 	c #CFD6DE",
"L 	c #CFD7DD",
"M 	c #D0D7DD",
"N 	c #D0D7DE",
"O 	c #CED5DC",
"P 	c #CED4DC",
"Q 	c #CDD4DC",
"R 	c #CDD5DC",
"S 	c #CBD3DA",
"T 	c #CBD2DB",
"U 	c #CBD2DA",
"V 	c #CBD3DB",
"W 	c #CCD2DA",
"X 	c #CCD3DA",
"Y 	c #C9D1D9",
"Z 	c #C9D1D8",
"` 	c #C8D0D9",
" .	c #C9D0D9",
"..	c #C8D1D9",
"+.	c #C7CFD7",
"@.	c #C7CFD8",
"#.	c #C6CFD7",
"$.	c #C7CED7",
"%.	c #C6CED7",
"&.	c #C6CFD8",
"*.	c #C4CDD6",
"=.	c #C5CDD6",
"-.	c #C5CDD5",
";.	c #C4CCD6",
">.	c #C4CDD5",
",.	c #C2CBD5",
"'.	c #C2CBD4",
").	c #C3CBD4",
"!.	c #BFCAD3",
"~.	c #C0C9D2",
"{.	c #C0C9D3",
"].	c #BFCAD2",
"^.	c #C0CAD3",
"/.	c #BFC9D2",
"(.	c #BFC9D3",
"_.	c #BDC8D1",
":.	c #BDC7D1",
"<.	c #BEC7D1",
"[.	c #BEC8D2",
"}.	c #BCC6D0",
"|.	c #BBC5D0",
"1.	c #BBC6CF",
"2.	c #BBC6D0",
"3.	c #BBC5CF",
"4.	c #BCC5CF",
"5.	c #BCC5D0",
"6.	c #B9C3CE",
"7.	c #B9C4CE",
"8.	c #B9C3CD",
"9.	c #B8C3CD",
"0.	c #B8C4CE",
"a.	c #91969A",
"          .       . .           + .           + ",
"@ # $ @ @ # $ # % @ # # $ % @ @ % @ % & & % @ @ ",
"* = * = - ; * * * * > = * ; = * * = * - = - * = ",
", ' ) ) ' ! , ! ! ! ! ' ) , , ) ' , ) , ) , ' ! ",
"~ ~ ~ { ] { ] ~ ^ ~ ] ~ { ~ ^ ^ { ] ] ^ ~ ] ~ ] ",
"/ ( _ ( ( _ : < : _ / < < _ < [ } : } _ < [ | / ",
"1 2 2 3 3 3 3 3 3 3 4 1 1 3 3 5 4 4 3 3 4 3 3 3 ",
"6 7 6 6 6 8 9 6 6 6 6 6 6 6 6 0 7 a 8 b 0 6 6 b ",
"c d e d f d d f g f h c c f f g d h d d f i f d ",
"j k j j j l j j m m n k k j m m l j j j j l j j ",
"o o o o o o p p m m m q p m m m o o o o o p p o ",
"r s t r t u u u t m m m m m m u t t v s u u u v ",
"w x w w y z y A B A m m m m C w w y w y w D y D ",
"E F E E E G G G E E m m m m G G E E H F E E E G ",
"I J J J K L J K M m m m m m m J K N M J J I I M ",
"O P Q O Q R P R m m m Q O m m m Q R O P R R O Q ",
"S T U V W X T X m m U T V X m m W V V S S S S W ",
"Y Z Z ` Y Z Y  .Y Y  .Y Y Y Z  .`  .Y Y .. .Y Y ",
"+.@.+.+.#.$.%.$.#.@.#.#.&.+.$.#.+.@.+.&.@.@.#.@.",
"*.*.=.*.-.*.*.*.=.*.*.*.;.*.;.-.>.*.*.*.-.>.=.;.",
",.'.'.'.'.'.'.'.'.'.'.'.'.'.,.,.,.).'.'.'.'.'.'.",
"!.~.~.{.].{.~.^.^./.~.(.{.~.{.~.~.~.{.~.~.(.{./.",
"_.:.:.<.:._.:.<.[.:.:.:.:.<.<.:.:.<._.<.<.:.<.:.",
"}.|.1.|.}.|.2.|.|.}.|.2.|.|.3.3.2.3.4.1.5.3.|.|.",
"6.7.6.7.6.7.6.6.7.7.7.7.7.8.6.7.9.7.7.7.6.6.0.0.",
"a.a.a.a.a.a.a.a.a.a.a.a.a.a.a.a.a.a.a.a.a.a.a.a."};
