/* XPM */
static char * close_pressed_xpm[] = {
"24 26 148 2",
"  	c #DBE0E4",
". 	c #DBE0E3",
"+ 	c #DBE1E4",
"@ 	c #DCE0E4",
"# 	c #DCE0E3",
"$ 	c #DCE1E4",
"% 	c #DCE1E3",
"& 	c #DAE0E3",
"* 	c #DBDFE3",
"= 	c #D9DEE2",
"- 	c #D9DFE2",
"; 	c #D8DEE2",
"> 	c #D9DEE1",
", 	c #D8DEE1",
"' 	c #D9DDE2",
") 	c #D6DCE0",
"! 	c #D6DCE1",
"~ 	c #D7DCE0",
"{ 	c #D5DCE0",
"] 	c #D6DBDF",
"^ 	c #D6DCDF",
"/ 	c #D6DBE0",
"( 	c #D5DBE0",
"_ 	c #D4DADE",
": 	c #D4DADF",
"< 	c #D3DADE",
"[ 	c #D4DBDF",
"} 	c #D3D9DF",
"| 	c #D4D9DE",
"1 	c #D3D9DE",
"2 	c #D3DADF",
"3 	c #D1D8DD",
"4 	c #D1D8DC",
"5 	c #D1D7DC",
"6 	c #D0D8DD",
"7 	c #D0D8DC",
"8 	c #CED6DB",
"9 	c #CFD6DB",
"0 	c #CFD6DC",
"a 	c #CED5DB",
"b 	c #CED6DA",
"c 	c #CFD5DB",
"d 	c #CED5DA",
"e 	c #CCD4D9",
"f 	c #CDD4D9",
"g 	c #CCD4DA",
"h 	c #CBD4D9",
"i 	c #CBD3D9",
"j 	c #CCD3D9",
"k 	c #CCD3DA",
"l 	c #CBD3DA",
"m 	c #C9D2D8",
"n 	c #C9D1D8",
"o 	c #C9D2D7",
"p 	c #C9D1D7",
"q 	c #C6CFD6",
"r 	c #C6D0D6",
"s 	c #C6CFD5",
"t 	c #C6D0D5",
"u 	c #C7D0D6",
"v 	c #C7CFD6",
"w 	c #C7CFD5",
"x 	c #C4CDD4",
"y 	c #787C80",
"z 	c #C5CDD4",
"A 	c #C1CBD2",
"B 	c #C2CBD2",
"C 	c #C2CBD3",
"D 	c #C1CBD3",
"E 	c #BFC9D1",
"F 	c #BFC8D0",
"G 	c #BFC8D1",
"H 	c #BFC9D0",
"I 	c #BCC7CF",
"J 	c #BDC7CF",
"K 	c #BCC6D0",
"L 	c #BCC7D0",
"M 	c #BAC5CD",
"N 	c #BAC4CE",
"O 	c #BAC5CE",
"P 	c #B9C4CE",
"Q 	c #B9C5CE",
"R 	c #BAC4CD",
"S 	c #B9C5CD",
"T 	c #B8C2CB",
"U 	c #B7C2CC",
"V 	c #B7C2CB",
"W 	c #B8C3CC",
"X 	c #B7C3CC",
"Y 	c #B7C3CB",
"Z 	c #B8C2CC",
"` 	c #B6C1CA",
" .	c #B5C1CB",
"..	c #B5C1CA",
"+.	c #B6C1CB",
"@.	c #B3BEC9",
"#.	c #B3BEC8",
"$.	c #B2BEC9",
"%.	c #B2BEC8",
"&.	c #B2BFC9",
"*.	c #B2BFC8",
"=.	c #B3BFC8",
"-.	c #B3BFC9",
";.	c #B0BCC7",
">.	c #B0BDC7",
",.	c #AFBCC6",
"'.	c #B0BCC6",
").	c #AFBCC7",
"!.	c #ADBAC5",
"~.	c #AEBAC5",
"{.	c #AEBBC5",
"].	c #ABB8C3",
"^.	c #ABB8C4",
"/.	c #ABB9C3",
"(.	c #AAB8C3",
"_.	c #A9B6C2",
":.	c #A9B6C1",
"<.	c #A8B6C2",
"[.	c #A8B6C1",
"}.	c #A5B4C0",
"|.	c #A6B4C0",
"1.	c #A6B3C0",
"2.	c #A5B3C1",
"3.	c #A3B2BE",
"4.	c #A3B1BF",
"5.	c #A3B2BF",
"6.	c #A4B2BE",
"7.	c #A3B1BE",
"8.	c #A1AFBD",
"9.	c #A1B0BD",
"0.	c #A0AFBD",
"a.	c #A0B0BD",
"b.	c #A1AFBC",
"c.	c #A0B0BC",
"d.	c #A1B0BC",
"e.	c #9EAEBB",
"f.	c #9EADBB",
"g.	c #9FADBB",
"h.	c #9EAEBC",
"i.	c #9FAEBB",
"j.	c #9BACB9",
"k.	c #9CACB9",
"l.	c #9BABBA",
"m.	c #9CACBA",
"n.	c #9BACBA",
"o.	c #9CABBA",
"p.	c #9BABB9",
"q.	c #9CABB9",
"  . . + @ # $ % # . # . & . . . & . * * . . . & ",
"= = = - = - ; = - = = ; ; > ; = , ' > , = ; , = ",
") ! ) ~ ~ ) ~ ~ ~ { ) ) ) ] ) ) ^ ) ) ) { / ( / ",
"_ : : < _ : [ [ _ < } < < < | 1 _ _ < < } } < 2 ",
"3 3 3 3 4 4 5 3 4 3 6 7 4 3 3 4 4 4 3 5 3 5 5 6 ",
"8 9 8 0 8 9 8 8 a b c 8 a a 8 a a 8 8 a a c d a ",
"e e f g e g h i j j g e j i i k j i i j i h l h ",
"m n o o p n p p p p p m o m o o n n p p o n p p ",
"q r q s q t q q s q u q v v w q q w q v q q v t ",
"x x x x x x x x y y z x x x y y x x x x x x x x ",
"A A B C C B C D y y y B A y y y D B A D D D D B ",
"E E E E F E E E G y y y y y y E E G H E H E E H ",
"I I I J I I K J I I y y y y J L J J J I I I I J ",
"M N O P N N Q M M M y y y y M M M R S M R Q R M ",
"T U V T W X X X W y y y y y y X Y X U U Z V V Z ",
"`  ...`  .`  . .y y y +.` y y y  .+.` ` +.` ....",
"@.#.$.@.#.%.&.%.y y *.%.=.-.y y =.*.%.=.%.=.%.&.",
";.>.,.;.>.;.>.;.;.'.>.'.).>.;.'.'.;.>.).'.;.'.;.",
"!.!.~.!.!.~.!.{.!.!.~.~.!.!.~.!.!.{.!.!.~.~.!.~.",
"].].].].].].].].].^.].].].^./.^.^./.].^.].(.].^.",
"_.:._.<.<.<.<.<._.<.[.<.<._.:.<.[.<._.<._._.<.<.",
"}.|.|.}.|.1.|.|.}.}.}.}.}.}.|.}.|.2.|.|.|.|.|.}.",
"3.4.3.5.3.3.3.3.5.3.5.6.6.5.4.5.3.4.7.5.5.4.3.3.",
"8.9.0.9.a.b.a.c.9.9.9.9.9.8.9.9.8.9.8.0.d.9.d.0.",
"e.f.g.e.h.e.e.f.e.f.i.e.e.e.e.e.e.f.i.e.e.e.g.f.",
"j.k.l.m.n.o.j.p.k.n.o.o.m.k.q.n.k.q.p.o.p.k.o.q."};
