/* XPM */
static char * close_active_xpm[] = {
"24 26 138 2",
"  	c #F0F1F3",
". 	c #EFF1F3",
"+ 	c #F0F1F4",
"@ 	c #EFF1F4",
"# 	c #EDEFF2",
"$ 	c #EEEFF2",
"% 	c #EEF0F1",
"& 	c #EDEFF1",
"* 	c #EEF0F2",
"= 	c #EEEFF1",
"- 	c #EBEDF0",
"; 	c #EBEEF0",
"> 	c #EBEDF1",
", 	c #ECEEF0",
"' 	c #EBEEF1",
") 	c #ECEDF0",
"! 	c #E9EBEF",
"~ 	c #E9EBEE",
"{ 	c #E9ECEF",
"] 	c #E9ECEE",
"^ 	c #E7EAED",
"/ 	c #E7E9ED",
"( 	c #E6E9ED",
"_ 	c #E6EAEE",
": 	c #E6EAED",
"< 	c #E5E7EC",
"[ 	c #E4E8EB",
"} 	c #E5E8EB",
"| 	c #E4E8EC",
"1 	c #E4E7EC",
"2 	c #E5E8EC",
"3 	c #E5E7EB",
"4 	c #E4E7EB",
"5 	c #E3E5E9",
"6 	c #E2E5EA",
"7 	c #E2E6EA",
"8 	c #E3E5EA",
"9 	c #E0E4E9",
"0 	c #E0E3E8",
"a 	c #DFE4E8",
"b 	c #DFE3E8",
"c 	c #E0E4E8",
"d 	c #E0E3E9",
"e 	c #DFE4E9",
"f 	c #DEE2E6",
"g 	c #DDE2E7",
"h 	c #DDE1E7",
"i 	c #DDE2E6",
"j 	c #DEE1E7",
"k 	c #DEE2E7",
"l 	c #DBE0E5",
"m 	c #DCE0E5",
"n 	c #DBE0E6",
"o 	c #DCDFE5",
"p 	c #1E1F20",
"q 	c #DBDFE5",
"r 	c #DBDFE6",
"s 	c #D9DEE4",
"t 	c #D9DEE3",
"u 	c #D8DEE4",
"v 	c #D7DCE2",
"w 	c #D7DDE2",
"x 	c #D6DCE2",
"y 	c #D6DCE3",
"z 	c #D4DAE0",
"A 	c #D4DAE1",
"B 	c #D5DAE1",
"C 	c #D4DBE1",
"D 	c #D4DBE0",
"E 	c #D5DAE0",
"F 	c #D5DBE1",
"G 	c #D2D8DF",
"H 	c #D2D9DF",
"I 	c #D0D7DD",
"J 	c #D0D6DD",
"K 	c #D0D6DE",
"L 	c #D0D7DE",
"M 	c #CFD7DD",
"N 	c #CFD6DD",
"O 	c #CFD6DE",
"P 	c #CDD4DC",
"Q 	c #CED5DC",
"R 	c #CDD5DC",
"S 	c #CED4DC",
"T 	c #CDD5DB",
"U 	c #CBD2DB",
"V 	c #CBD3DA",
"W 	c #CBD2DA",
"X 	c #CCD3DA",
"Y 	c #CCD3DB",
"Z 	c #CCD2DA",
"` 	c #CBD3DB",
" .	c #C9D1D9",
"..	c #C9D1D8",
"+.	c #C9D0D9",
"@.	c #C8D1D8",
"#.	c #C8D1D9",
"$.	c #C9D0D8",
"%.	c #C6CFD7",
"&.	c #C7CFD7",
"*.	c #C6CED8",
"=.	c #C7CFD8",
"-.	c #C6CFD8",
";.	c #C7CED8",
">.	c #C7CED7",
",.	c #C6CED7",
"'.	c #C5CDD6",
").	c #C4CDD6",
"!.	c #C4CDD5",
"~.	c #C5CCD5",
"{.	c #C5CDD5",
"].	c #C4CCD5",
"^.	c #C5CCD6",
"/.	c #C4CCD6",
"(.	c #C2CBD5",
"_.	c #C2CBD4",
":.	c #C2CAD5",
"<.	c #C0C9D3",
"[.	c #C0C9D2",
"}.	c #C0CAD3",
"|.	c #BFC9D2",
"1.	c #BFC9D3",
"2.	c #BDC7D1",
"3.	c #BEC7D1",
"4.	c #BEC8D1",
"5.	c #BEC7D2",
"6.	c #BBC5D0",
"7.	c #BBC5CF",
"8.	c #BCC6CF",
"9.	c #BCC6D0",
"0.	c #BCC5CF",
"a.	c #BBC6D0",
"b.	c #BBC6CF",
"c.	c #B9C3CE",
"d.	c #B9C3CD",
"e.	c #B8C3CE",
"f.	c #B9C4CE",
"g.	c #91969A",
"  . .   .   + +   @   .   .                 + + ",
"# $ # % & $ * $ & & $ $ $ $ # = * # & # $ # = $ ",
"- ; - - > - - - , - - ' ; - - , - ; - , - ) - ) ",
"! ~ ! ~ { ! ! ~ ~ ~ { ! ~ { ] ! ] ~ ~ ! ! ! ~ { ",
"^ / ( / _ / ( / / ( ^ ( ^ / ^ ( ^ ^ : ^ / / : : ",
"< [ } | 1 1 2 | 2 | } 3 | | } [ [ 1 2 [ < } [ 4 ",
"5 6 7 6 7 7 6 7 7 6 7 7 7 7 7 6 7 7 7 6 8 6 6 7 ",
"9 9 0 a b 0 c a d b 0 c 9 0 d e c 9 0 e 9 9 c c ",
"f g h i g g j k k g i g f g k g i k g f f g f k ",
"l m m n l l o l p p q l l n p p l m l l m r l l ",
"s s s s s t s t p p p s s p p p s s t s s t s u ",
"v v w v v x w v x p p p p p p y v v y y y v v x ",
"z A z B B A C z B A p p p p B D B C E F z B A z ",
"G G G G H G G G H H p p p p G G G G G G G G G H ",
"I J K I L M I N I p p p p p p O J J K M I J L J ",
"P Q Q R S R Q Q p p p Q R p p p R P P R R S T P ",
"U V V W W V X Y p p Z ` V V p p Z W ` Z U V V ` ",
" ...+. . .@. . . . .#. . .#.#. .$.+.+. . .#. ...",
"%.&.*.&.=.*.%.-.;.>.&.&.,.&.&.&.&.%.&.-.&.>.&.-.",
"'.).).!.).'.!.~.).).).!.!.).!.{.].^.{.).).).!./.",
"(._._.(._.:._._.(._._._._._._.(._._._._._.(._._.",
"<.<.[.<.}.[.[.[.<.<.<.|.[.<.[.<.[.[.|.<.<.<.1.<.",
"2.3.2.2.3.4.2.2.5.2.3.5.2.2.2.3.2.2.3.2.3.3.2.3.",
"6.7.8.9.6.6.7.0.6.a.b.7.8.6.7.b.8.b.b.6.6.6.6.b.",
"c.c.d.e.f.d.c.e.f.f.f.c.c.c.c.c.c.c.f.c.c.f.f.c.",
"g.g.g.g.g.g.g.g.g.g.g.g.g.g.g.g.g.g.g.g.g.g.g.g."};
