/* XPM */
static char * hide_active_xpm[] = {
"24 26 140 2",
"  	c #EFF0F2",
". 	c #EFF0F3",
"+ 	c #EFF1F3",
"@ 	c #EFF1F2",
"# 	c #EEF0F2",
"$ 	c #EDEEF1",
"% 	c #EDEEF0",
"& 	c #EDEFF1",
"* 	c #ECEEF0",
"= 	c #ECEEF1",
"- 	c #ECEFF0",
"; 	c #ECEFF1",
"> 	c #EDEFF0",
", 	c #EAEDF0",
"' 	c #EBEDF0",
") 	c #EBEDEF",
"! 	c #EAECEF",
"~ 	c #EBECEF",
"{ 	c #EAEDEF",
"] 	c #EBECF0",
"^ 	c #EAECF0",
"/ 	c #E9EBEE",
"( 	c #E8EBEE",
"_ 	c #E9EAEE",
": 	c #E9EBED",
"< 	c #E6E9ED",
"[ 	c #E6EAED",
"} 	c #E7E9ED",
"| 	c #E6E9EC",
"1 	c #E7E9EC",
"2 	c #E7EAED",
"3 	c #E6EAEC",
"4 	c #E4E7EC",
"5 	c #E4E8EB",
"6 	c #E5E7EB",
"7 	c #E4E7EB",
"8 	c #E5E8EB",
"9 	c #E2E6EA",
"0 	c #E2E6E9",
"a 	c #E2E5E9",
"b 	c #E2E5EA",
"c 	c #E3E5EA",
"d 	c #E0E4E9",
"e 	c #E0E4E8",
"f 	c #E0E3E9",
"g 	c #DEE2E6",
"h 	c #DEE2E7",
"i 	c #DEE3E7",
"j 	c #DDE2E7",
"k 	c #DDE3E7",
"l 	c #DBE1E5",
"m 	c #DCE1E5",
"n 	c #DCE1E6",
"o 	c #DCE0E6",
"p 	c #DCE0E5",
"q 	c #DBE0E5",
"r 	c #DBE0E6",
"s 	c #D9DFE4",
"t 	c #D9DEE4",
"u 	c #DADEE4",
"v 	c #DADFE3",
"w 	c #DADFE4",
"x 	c #D7DDE3",
"y 	c #D8DDE2",
"z 	c #D8DDE3",
"A 	c #D7DDE2",
"B 	c #D5DBE1",
"C 	c #D6DBE1",
"D 	c #D6DCE1",
"E 	c #1E1F20",
"F 	c #D5DCE1",
"G 	c #D3D9E0",
"H 	c #D4DADF",
"I 	c #D3DADF",
"J 	c #D3DAE0",
"K 	c #D4D9DF",
"L 	c #D4D9E0",
"M 	c #D3D9DF",
"N 	c #D1D7DE",
"O 	c #D1D8DE",
"P 	c #D1D7DF",
"Q 	c #D1D8DF",
"R 	c #D2D8DE",
"S 	c #CFD6DC",
"T 	c #CED6DD",
"U 	c #CFD6DD",
"V 	c #CFD5DD",
"W 	c #CED5DD",
"X 	c #CED6DC",
"Y 	c #CCD4DB",
"Z 	c #CDD4DC",
"` 	c #CDD4DB",
" .	c #CDD5DB",
"..	c #CCD5DC",
"+.	c #CBD3DA",
"@.	c #CBD2DA",
"#.	c #CAD2DA",
"$.	c #CAD3D9",
"%.	c #CAD3DA",
"&.	c #CBD2D9",
"*.	c #C9D1D8",
"=.	c #C8D0D9",
"-.	c #C9D1D9",
";.	c #C8D1D9",
">.	c #C8D0D8",
",.	c #C9D0D9",
"'.	c #C9D0D8",
").	c #C8D1D8",
"!.	c #C6CFD7",
"~.	c #C7CFD7",
"{.	c #C6CED7",
"].	c #C7CFD6",
"^.	c #C5CDD5",
"/.	c #C4CED6",
"(.	c #C4CDD6",
"_.	c #C5CDD6",
":.	c #C5CED5",
"<.	c #C5CED6",
"[.	c #C2CCD4",
"}.	c #C2CCD5",
"|.	c #C3CCD4",
"1.	c #C3CCD5",
"2.	c #C0CAD3",
"3.	c #C1CAD3",
"4.	c #C0CBD3",
"5.	c #C1CBD3",
"6.	c #BEC8D2",
"7.	c #BEC8D1",
"8.	c #BFC8D2",
"9.	c #BEC9D1",
"0.	c #BEC9D2",
"a.	c #BFC9D2",
"b.	c #BFC8D1",
"c.	c #BFC9D1",
"d.	c #BDC7D0",
"e.	c #BCC7D0",
"f.	c #BCC7D1",
"g.	c #BCC6D0",
"h.	c #BDC6D0",
"i.	c #91969A",
"      . + @     .       .         . . . # .     ",
"$ % & $ $ $ & % $ $ $ * $ = $ = - $ % $ ; & > % ",
", ' ) ! ' ~ ) { ) ! ' { ) ~ ) ' ] ^ ! ] ] ^ ! ) ",
"/ / ( ( ( / / ( _ / / ( ( ( ( : / / / ( ( ( ( ( ",
"< [ } | 1 } | 1 | 1 < } | | 1 | < | < 2 1 3 | } ",
"4 5 6 7 5 7 7 5 5 8 5 7 7 6 7 7 4 7 5 6 5 8 7 6 ",
"9 9 0 9 a 9 b 9 b 9 b 0 9 b 9 9 c 9 0 9 9 9 b 0 ",
"d e d e f e e e e e e e d d e e e e e e e e e e ",
"g h g h h h h i h h h i h h j h h h i h j i i k ",
"l m n m o p p m q p m p p l p r p n m o r p m o ",
"s t u s u u s v w s u w s w s w s t w s w w u w ",
"x y x y y y z A z x x z A y A x z x y x A A x y ",
"B B C B B D B B E E E E E E E E F B B C B B B F ",
"G H I G G I G I E E E E E E E E J J G K L G M M ",
"N N N N O N O N O P O N O N O N Q N P O O N R O ",
"S T S S U U U U U T V W U S S V T U U W X U S X ",
"Y Z Y ` Z `  ...Z  .` Z Z ..` Z Y Y Z ` ` ` `  .",
"+.@.@.@.#.@.#.@.#.#.+.@.$.+.@.@.@.+.+.#.%.+.%.&.",
"*.=.-.;.>.,.*.-.'.-.).-.*.*.*.=.;.-.,.>.-.;.,.,.",
"!.~.~.!.!.~.!.{.~.!.~.!.~.!.~.!.].!.~.~.!.!.!.].",
"^./.(._._./.:._._._./.<.<.<./._.<.(.<.<.<.<./._.",
"[.}.|.[.|.[.|.|.1.|.}.}.1.}.1.|.|.}.}.}.|.[.|.|.",
"2.3.2.3.2.2.3.4.2.2.3.3.2.2.5.2.3.3.2.5.2.2.2.5.",
"6.7.6.8.9.0.7.6.6.8.9.a.a.0.7.6.6.0.b.c.a.b.0.9.",
"d.e.e.e.e.f.e.e.e.g.h.e.e.d.e.h.f.e.e.g.e.e.h.g.",
"i.i.i.i.i.i.i.i.i.i.i.i.i.i.i.i.i.i.i.i.i.i.i.i."};
