/* XPM */
static char * hide_pressed_xpm[] = {
"24 26 148 2",
"  	c #D8DFE3",
". 	c #D8DFE2",
"+ 	c #D9DFE3",
"@ 	c #D9DFE2",
"# 	c #D6DDE0",
"$ 	c #D6DDE1",
"% 	c #D7DDE0",
"& 	c #D7DDE1",
"* 	c #D4DBDF",
"= 	c #D4DADF",
"- 	c #D3DBDF",
"; 	c #D2D9DD",
"> 	c #D1D9DD",
", 	c #D2D9DE",
"' 	c #D1D9DE",
") 	c #CFD7DB",
"! 	c #CFD7DC",
"~ 	c #CFD6DC",
"{ 	c #D0D7DC",
"] 	c #D0D6DC",
"^ 	c #CDD4DB",
"/ 	c #CCD5DA",
"( 	c #CDD5DA",
"_ 	c #CDD4DA",
": 	c #CDD5DB",
"< 	c #CCD5DB",
"[ 	c #CCD4DA",
"} 	c #CAD3D8",
"| 	c #CAD2D9",
"1 	c #CAD3D9",
"2 	c #CBD2D8",
"3 	c #CBD3D9",
"4 	c #C8D1D7",
"5 	c #C8D0D7",
"6 	c #C7D1D8",
"7 	c #C7D1D7",
"8 	c #C5CFD5",
"9 	c #C5CFD6",
"0 	c #C6CFD6",
"a 	c #C6CFD5",
"b 	c #C6CED6",
"c 	c #C6CED5",
"d 	c #C5CED5",
"e 	c #C5CED6",
"f 	c #C4CDD4",
"g 	c #C3CDD4",
"h 	c #C3CCD4",
"i 	c #C3CDD3",
"j 	c #C1CBD2",
"k 	c #C1CAD3",
"l 	c #C0CBD2",
"m 	c #C1CBD3",
"n 	c #C0CAD3",
"o 	c #C1CAD2",
"p 	c #C0CAD2",
"q 	c #BEC9D0",
"r 	c #BEC9D1",
"s 	c #BFC9D1",
"t 	c #BEC8D0",
"u 	c #BFC8D1",
"v 	c #BFC9D0",
"w 	c #BFC8D0",
"x 	c #BEC8D1",
"y 	c #BCC7CF",
"z 	c #BCC6CF",
"A 	c #BBC7CF",
"B 	c #787C80",
"C 	c #BCC7D0",
"D 	c #BAC5CD",
"E 	c #B9C5CE",
"F 	c #B9C5CD",
"G 	c #BAC5CE",
"H 	c #BAC4CE",
"I 	c #B9C4CE",
"J 	c #B7C3CC",
"K 	c #B7C2CC",
"L 	c #B8C3CC",
"M 	c #B7C3CB",
"N 	c #B7C2CB",
"O 	c #B5C0CA",
"P 	c #B4C1CA",
"Q 	c #B5C1CA",
"R 	c #B5C1CB",
"S 	c #B4C1CB",
"T 	c #B5C0CB",
"U 	c #B4C0CB",
"V 	c #B2BFC9",
"W 	c #B2BEC9",
"X 	c #B2BFC8",
"Y 	c #B3BFC8",
"Z 	c #B2BEC8",
"` 	c #B3BEC8",
" .	c #B3BEC9",
"..	c #B3BFC9",
"+.	c #AFBDC8",
"@.	c #B0BDC7",
"#.	c #B0BCC7",
"$.	c #B0BDC8",
"%.	c #B0BCC8",
"&.	c #AFBCC7",
"*.	c #AFBDC7",
"=.	c #ADBBC6",
"-.	c #AEBAC6",
";.	c #ADBBC5",
">.	c #AEBAC5",
",.	c #ADBAC5",
"'.	c #ADBAC6",
").	c #AEBBC5",
"!.	c #AEBBC6",
"~.	c #ABB9C4",
"{.	c #ABB8C4",
"].	c #ACB9C4",
"^.	c #ACB8C4",
"/.	c #A9B7C2",
"(.	c #A9B6C2",
"_.	c #A9B7C3",
":.	c #A8B6C2",
"<.	c #A8B7C2",
"[.	c #A8B6C3",
"}.	c #A9B6C3",
"|.	c #A6B5C1",
"1.	c #A6B5C0",
"2.	c #A6B4C1",
"3.	c #A7B5C1",
"4.	c #A7B4C1",
"5.	c #A7B4C0",
"6.	c #A6B4C0",
"7.	c #A4B2BF",
"8.	c #A4B3BF",
"9.	c #A4B3C0",
"0.	c #A3B3BF",
"a.	c #A4B2C0",
"b.	c #A1B0BD",
"c.	c #A1B1BD",
"d.	c #A2B0BD",
"e.	c #A2B0BE",
"f.	c #A2B1BE",
"g.	c #A1B1BE",
"h.	c #A1B0BE",
"i.	c #9FAEBC",
"j.	c #9FAFBC",
"k.	c #A0AEBC",
"l.	c #9DACBA",
"m.	c #9CADBA",
"n.	c #9CACBA",
"o.	c #9DADBA",
"p.	c #9CADBB",
"q.	c #9DADBB",
"  . + . @ @ @ @ . @ . @ @ @ . @ . . . @ . @ @ @ ",
"# # $ % $ # $ # # $ & # % # $ # # # % $ % $ # $ ",
"* * * * * * * * * = * * * * = * - * * * * * * * ",
"; > > , , ; ' > ; ' > ' , ; ; ; ' > ' > > ; ; ; ",
") ! ! ! ! ) ! ! ~ ! { ! ! ! ! ) ) ) ! ! { ! ] ! ",
"^ / ( ( ( _ : < ( ( : : ( : : / ( ( / ( < [ ( ( ",
"} | 1 } } | 1 1 2 1 3 1 1 1 2 1 3 3 3 3 3 1 1 1 ",
"4 4 5 6 5 7 5 4 4 5 7 4 4 4 4 7 4 5 4 4 4 4 4 5 ",
"8 9 0 a 0 8 0 a a b 0 a a 0 c 9 d 8 e a b 8 8 8 ",
"f g g g g h g g g i g f g g i i g f g g g i g h ",
"j k l l m k j l j m j j l m j n m o o k j j j p ",
"q r s q q r q r r t u v v r r w s r x u t q r s ",
"y y y z A z z y B B B B B B B B y y C y y y y y ",
"D E F E G H E G B B B B B B B B I I E H D E G E ",
"J J J J J J K L J K J J K K M J M N J J J J J J ",
"O O P Q O Q Q R S S R S R T O O U Q R Q Q Q T Q ",
"V V W V V X W X Y Z Z ` X  .V ..V W V W V Z Z ..",
"+.@.@.@.@.@.#.@.$.@.@.%.#.@.&.&.@.#.*.@.&.@.@.%.",
"=.-.;.>.-.;.>.,.'.).).).;.!.=.,.'.=.'.=.=.=.!.>.",
"~.~.~.{.{.{.~.{.].^.{.~.{.~.{.~.{.{.{.~.].{.{.{.",
"/./.(./._.:._.<.(.[.<.(._.(.:._.}.<.}.(.<.(././.",
"|.1.2.1.2.2.|.2.|.3.4.|.2.5.1.6.|.2.|.5.|.3.2.|.",
"7.8.8.7.8.8.7.8.7.8.9.9.8.8.8.8.0.8.9.a.7.7.8.8.",
"b.c.d.e.d.b.c.d.f.g.c.b.f.h.g.e.b.f.h.h.e.c.h.d.",
"i.j.i.j.j.i.i.i.i.j.i.i.j.i.i.i.j.i.i.j.i.k.i.j.",
"l.m.n.n.l.m.o.p.o.q.l.p.q.o.l.m.o.p.l.l.n.l.q.q."};
