/* XPM */
static char * hide_prelight_xpm[] = {
"24 26 134 2",
"  	c #EEF0F2",
". 	c #EEEFF2",
"+ 	c #EEEFF3",
"@ 	c #EDEFF2",
"# 	c #EDEFF3",
"$ 	c #ECEDF1",
"% 	c #ECEEF0",
"& 	c #ECEEF1",
"* 	c #EBEDF1",
"= 	c #ECEDF0",
"- 	c #EBEDF0",
"; 	c #EAECEF",
"> 	c #E9EBEF",
", 	c #E9ECEF",
"' 	c #EAECF0",
") 	c #EAEBEF",
"! 	c #E8EAEE",
"~ 	c #E7EAEE",
"{ 	c #E6E8EC",
"] 	c #E5E9EC",
"^ 	c #E5E8ED",
"/ 	c #E6E9EC",
"( 	c #E5E9ED",
"_ 	c #E6E9ED",
": 	c #E6E8ED",
"< 	c #E3E6EB",
"[ 	c #E4E6EB",
"} 	c #E3E7EB",
"| 	c #E4E7EB",
"1 	c #E4E7EC",
"2 	c #E3E7EC",
"3 	c #E2E5EA",
"4 	c #E2E5E9",
"5 	c #E1E5EA",
"6 	c #E1E5E9",
"7 	c #E0E3E8",
"8 	c #DFE3E8",
"9 	c #DFE3E9",
"0 	c #DFE4E9",
"a 	c #DDE1E7",
"b 	c #DDE2E7",
"c 	c #DDE2E6",
"d 	c #DEE1E6",
"e 	c #DEE2E7",
"f 	c #DDE1E6",
"g 	c #DEE1E7",
"h 	c #DCE0E6",
"i 	c #DBE0E5",
"j 	c #DBE0E6",
"k 	c #DBDFE6",
"l 	c #DCE0E5",
"m 	c #D9DEE4",
"n 	c #D8DEE4",
"o 	c #D9DEE3",
"p 	c #D7DCE3",
"q 	c #D7DCE2",
"r 	c #D7DDE3",
"s 	c #D7DDE2",
"t 	c #D6DCE3",
"u 	c #D6DDE3",
"v 	c #D4DAE1",
"w 	c #D5DBE1",
"x 	c #D4DBE1",
"y 	c #D4DAE2",
"z 	c #787C80",
"A 	c #D5DAE1",
"B 	c #D3D9DF",
"C 	c #D2D9DF",
"D 	c #D2D9E0",
"E 	c #D3D9E0",
"F 	c #D3D8DF",
"G 	c #D1D7DE",
"H 	c #D0D8DE",
"I 	c #D0D7DE",
"J 	c #D1D8DE",
"K 	c #D1D7DF",
"L 	c #CFD5DC",
"M 	c #CED5DD",
"N 	c #CED6DD",
"O 	c #CFD5DD",
"P 	c #CFD6DD",
"Q 	c #CED5DC",
"R 	c #CED6DC",
"S 	c #CCD4DC",
"T 	c #CDD4DC",
"U 	c #CDD4DB",
"V 	c #CCD4DB",
"W 	c #CCD3DB",
"X 	c #CCD3DC",
"Y 	c #CAD2DA",
"Z 	c #CAD3DA",
"` 	c #CBD2DA",
" .	c #CAD2D9",
"..	c #CBD2D9",
"+.	c #C8D1D8",
"@.	c #C8D0D9",
"#.	c #C9D0D9",
"$.	c #C8D0D8",
"%.	c #C9D1D9",
"&.	c #C8D1D9",
"*.	c #C9D0D8",
"=.	c #C6CED7",
"-.	c #C6CFD7",
";.	c #C6CED6",
">.	c #C6CFD6",
",.	c #C7CFD7",
"'.	c #C4CDD6",
").	c #C4CDD5",
"!.	c #C4CCD6",
"~.	c #C2CBD4",
"{.	c #C2CCD5",
"].	c #C1CBD4",
"^.	c #C1CCD4",
"/.	c #C2CBD5",
"(.	c #C2CCD4",
"_.	c #C0CAD2",
":.	c #C0CAD3",
"<.	c #C0C9D2",
"[.	c #BFCAD3",
"}.	c #BFCAD2",
"|.	c #C0C9D3",
"1.	c #BFC9D2",
"2.	c #BEC8D1",
"3.	c #BDC8D1",
"4.	c #BEC8D2",
"5.	c #BEC7D1",
"6.	c #BDC8D2",
"7.	c #BBC6D0",
"8.	c #BCC6D0",
"9.	c #BCC7D0",
"0.	c #BCC6CF",
"a.	c #BBC6CF",
"b.	c #BCC7CF",
"c.	c #91969A",
"  . . + . + . . + . . . @ . . . # . + . + . + . ",
"$ % & % * $ % = & $ = - = & = % * $ % $ & * - $ ",
"; > ; ; ; ; , ; ' ; ' , ; > ' ' ; ; ) ; ; ' ) ; ",
"! ! ! ! ! ! ! ~ ~ ! ~ ~ ! ~ ! ! ! ~ ! ! ~ ~ ~ ~ ",
"{ ] ^ ] / ( { ^ { _ { { : / _ : / : ^ ] ] ( { { ",
"< [ [ < } [ | } } } 1 } [ } 2 } < } < 2 | < [ } ",
"3 4 5 3 3 3 3 4 5 4 5 4 5 5 5 6 3 5 3 6 5 6 6 5 ",
"7 7 8 9 7 0 8 8 7 7 7 9 8 8 7 8 8 9 7 8 9 8 8 8 ",
"a b c a c d b e a a f a b b b b a b b g e c g b ",
"h i j h j j j i i i j i k i i k i i l j j j j i ",
"m m n m m o m m m m m m m m m m m m m m m n m m ",
"p p p q q r r s p q p q p p q s p r t q p p u q ",
"v w w w w x y w z z z z z z z z x v x w w w A w ",
"B C D B B E D E z z z z z z z z D E B B F B D E ",
"G H G G I I I I I J H G I I I J I I G K J K I J ",
"L M N N N O P N Q Q N N R Q O M N L Q M P N O M ",
"S T U V W W S V U T S U V S V W V S S V S V U X ",
"Y Y Y Y Y Y Y Y Z ` Y Z ` Y  .Y .. .` ` Y Y Y Y ",
"+.@.@.#.+.$.@.%.+.&.%.+.@.*.+.&.$.*.+.$.@.+.@.*.",
"=.-.-.=.;.>.-.-.=.-.-.-.,.=.-.-.=.=.,.-.-.-.-.-.",
"'.'.).).).'.'.).'.'.).).'.'.).'.'.!.'.'.'.'.'.).",
"~.~.{.~.~.].].~.^.~.~.~.~./.(.~.(.~.~.~.~.~.].~.",
"_.:.<.:.:.:.[.:._.}._.}.|.:.:.|.<.:.[.|.:.:._.1.",
"2.3.3.3.3.2.3.3.2.3.2.2.2.2.3.4.5.3.2.3.6.4.2.3.",
"7.7.7.8.9.8.7.8.8.9.0.7.a.a.7.0.7.7.a.b.8.8.7.8.",
"c.c.c.c.c.c.c.c.c.c.c.c.c.c.c.c.c.c.c.c.c.c.c.c."};
