/* XPM */
static char * hide_inactive_xpm[] = {
"24 26 97 2",
"  	c #FEFFFF",
". 	c #FEFEFF",
"+ 	c #FDFFFF",
"@ 	c #FDFEFF",
"# 	c #FCFFFF",
"$ 	c #FCFEFF",
"% 	c #FBFDFF",
"& 	c #FBFEFF",
"* 	c #FAFEFF",
"= 	c #FAFDFF",
"- 	c #F9FDFF",
"; 	c #F8FCFF",
"> 	c #F7FCFF",
", 	c #F7FBFF",
"' 	c #F5FBFF",
") 	c #F4FBFF",
"! 	c #F5FAFF",
"~ 	c #F4FAFF",
"{ 	c #F2FAFF",
"] 	c #F3F9FF",
"^ 	c #F2F9FF",
"/ 	c #F1F9FF",
"( 	c #F1FAFF",
"_ 	c #EFF8FF",
": 	c #F0F8FF",
"< 	c #EEF8FF",
"[ 	c #EEF7FF",
"} 	c #EFF7FF",
"| 	c #EDF6FF",
"1 	c #ECF7FF",
"2 	c #ECF6FF",
"3 	c #EBF6FF",
"4 	c #EBF7FF",
"5 	c #EAF5FF",
"6 	c #E9F5FF",
"7 	c #E9F6FF",
"8 	c #E6F4FF",
"9 	c #E7F3FF",
"0 	c #E7F4FF",
"a 	c #E6F3FF",
"b 	c #E4F2FF",
"c 	c #E3F3FF",
"d 	c #E3F2FF",
"e 	c #E4F3FF",
"f 	c #E0F2FF",
"g 	c #E0F1FF",
"h 	c #E1F1FF",
"i 	c #E1F2FF",
"j 	c #DEEFFF",
"k 	c #DEF0FF",
"l 	c #DDF0FF",
"m 	c #DDEFFF",
"n 	c #DBEFFF",
"o 	c #DBEEFF",
"p 	c #787C80",
"q 	c #DCEFFF",
"r 	c #DCEEFF",
"s 	c #D8EDFF",
"t 	c #D9EDFF",
"u 	c #D8EEFF",
"v 	c #D5ECFF",
"w 	c #D5EBFF",
"x 	c #D6ECFF",
"y 	c #D6EBFF",
"z 	c #D4EBFF",
"A 	c #D3EAFF",
"B 	c #D3EBFF",
"C 	c #CFEAFF",
"D 	c #D0E9FF",
"E 	c #CFE9FF",
"F 	c #D0EAFF",
"G 	c #CDE7FF",
"H 	c #CDE8FF",
"I 	c #CEE8FF",
"J 	c #CAE6FF",
"K 	c #CAE7FF",
"L 	c #CBE6FF",
"M 	c #C7E5FF",
"N 	c #C8E5FF",
"O 	c #C8E6FF",
"P 	c #C7E6FF",
"Q 	c #C5E3FF",
"R 	c #C5E4FF",
"S 	c #C4E4FF",
"T 	c #C2E2FF",
"U 	c #C2E3FF",
"V 	c #C1E3FF",
"W 	c #BFE1FF",
"X 	c #BFE2FF",
"Y 	c #BDE0FF",
"Z 	c #BCE0FF",
"` 	c #BCDFFF",
" .	c #BADEFF",
"..	c #B9DEFF",
"+.	c #B9DFFF",
"@.	c #BADFFF",
"#.	c #E7EEF5",
"  .   .   . + + @   + @ + @ # @ # + $ $ @ + + $ ",
"% & & % * * = & & * = = = = = = = = = = = - = = ",
"; ; ; > > ; ; > ; > , > > , > , , > , > > > , , ",
"' ' ) ' ! ' ' ! ' ~ ~ ! ~ ! ~ ~ ~ ) ! ~ ~ ' ~ ~ ",
"{ { ] ^ ^ / / / / ^ / ( / / ^ / / ^ / ^ / ^ / / ",
"_ : _ _ _ < < _ _ [ < [ [ } _ [ _ _ _ < _ _ [ _ ",
"| 1 1 1 1 2 1 3 1 2 2 4 1 2 4 2 1 2 4 2 4 1 2 3 ",
"5 6 6 6 6 6 6 6 6 6 6 7 6 6 6 7 6 6 6 6 7 6 6 6 ",
"8 9 0 0 8 8 8 0 8 8 8 0 8 8 8 8 8 0 0 0 0 a 8 8 ",
"b c d e c b c d c d e c b c e c c d d d b e e e ",
"f g g h g h h f h h i g h i h h h f g g h h g h ",
"j k l m k k k l j k l k j m l k l k k k j k k k ",
"n n o n o n o o p p p p p p p p q o r n o o n n ",
"s s s s t t s s p p p p p p p p s s s u s s s s ",
"v v v v v w v x v x x y x v x v x w x v v x v x ",
"z A z z z A z z z A B B A B z B B A z z B z A B ",
"C D D D D D D D D E F D D E C D D D D D F D D F ",
"G H H G H H H H H H H H H H I H I H H G H H H H ",
"J J K K J K L J K K J K J K L K K J J K K K K J ",
"M M M N N M M M M N M O M M M M M M N N N N O P ",
"Q R R R S R S R R S R R R R S R S S S Q R R S S ",
"T T T U U U U T T U V U U U V U T T T T U T U U ",
"W X W X W W X X W W X X W X W X W X W X W X X W ",
"Y Z Z Z Z Z Z Z ` Y Y Z Z Y Z Y ` Y Z Z Z Z Z Z ",
" ... .+.@.+...+.@.@.+.@...@...+.+.+...@...+.@.@.",
"#.#.#.#.#.#.#.#.#.#.#.#.#.#.#.#.#.#.#.#.#.#.#.#."};
