/* XPM */
static char * maximize_toggled_active_xpm[] = {
"24 26 127 2",
"  	c #F0F1F3",
". 	c #F0F1F4",
"+ 	c #EFF1F3",
"@ 	c #EEEFF1",
"# 	c #EDF0F2",
"$ 	c #EDEFF2",
"% 	c #EEEFF2",
"& 	c #EDEFF1",
"* 	c #EBEDF0",
"= 	c #EBEEF0",
"- 	c #ECEDF0",
"; 	c #E9EBEE",
"> 	c #E9EBEF",
", 	c #E9ECEF",
"' 	c #E9ECEE",
") 	c #E6E9ED",
"! 	c #E7E9ED",
"~ 	c #E7EAED",
"{ 	c #E6EAED",
"] 	c #E6E9EE",
"^ 	c #E4E8EC",
"/ 	c #E4E7EB",
"( 	c #E5E7EB",
"_ 	c #E5E7EC",
": 	c #E5E8EB",
"< 	c #E4E8EB",
"[ 	c #E5E8EC",
"} 	c #E4E7EC",
"| 	c #E2E6EA",
"1 	c #E2E5EA",
"2 	c #E3E6EA",
"3 	c #E2E6E9",
"4 	c #E2E5E9",
"5 	c #E0E4E9",
"6 	c #E0E4E8",
"7 	c #E0E3E8",
"8 	c #E0E3E9",
"9 	c #DFE3E8",
"0 	c #DFE4E9",
"a 	c #DEE2E7",
"b 	c #DEE2E6",
"c 	c #DDE2E7",
"d 	c #DEE1E7",
"e 	c #DDE2E6",
"f 	c #DDE1E7",
"g 	c #DBE0E5",
"h 	c #DBDFE6",
"i 	c #DBDFE5",
"j 	c #1E1F20",
"k 	c #DCE0E6",
"l 	c #D9DEE3",
"m 	c #D9DEE4",
"n 	c #D8DEE4",
"o 	c #D9DFE3",
"p 	c #D7DCE2",
"q 	c #D6DCE2",
"r 	c #D6DDE3",
"s 	c #D7DCE3",
"t 	c #D6DCE3",
"u 	c #D7DDE2",
"v 	c #D4DAE1",
"w 	c #D4DBE1",
"x 	c #D4DAE0",
"y 	c #D5DBE0",
"z 	c #D2D8DF",
"A 	c #D2D9DF",
"B 	c #D0D7DE",
"C 	c #D0D6DE",
"D 	c #D0D6DD",
"E 	c #CFD6DD",
"F 	c #D0D7DD",
"G 	c #CFD7DE",
"H 	c #CFD6DE",
"I 	c #CFD7DD",
"J 	c #CED4DC",
"K 	c #CDD4DC",
"L 	c #CED5DC",
"M 	c #CDD4DB",
"N 	c #CBD3DA",
"O 	c #CBD2DB",
"P 	c #CBD3DB",
"Q 	c #CCD2DA",
"R 	c #CCD3DA",
"S 	c #CBD2DA",
"T 	c #CCD3DB",
"U 	c #C9D1D9",
"V 	c #C9D0D9",
"W 	c #C8D1D9",
"X 	c #C8D1D8",
"Y 	c #C9D1D8",
"Z 	c #C7CED8",
"` 	c #C7CFD7",
" .	c #C6CED8",
"..	c #C7CFD8",
"+.	c #C6CED7",
"@.	c #C6CFD7",
"#.	c #C7CED7",
"$.	c #C6CFD8",
"%.	c #C5CDD5",
"&.	c #C4CCD6",
"*.	c #C4CDD6",
"=.	c #C4CCD5",
"-.	c #C5CDD6",
";.	c #C5CCD6",
">.	c #C4CDD5",
",.	c #C2CBD4",
"'.	c #C2CBD5",
").	c #BFC9D3",
"!.	c #C0C9D2",
"~.	c #C0C9D3",
"{.	c #BFCAD3",
"].	c #BFC9D2",
"^.	c #BEC7D1",
"/.	c #BDC7D1",
"(.	c #BEC8D1",
"_.	c #BBC5D0",
":.	c #BBC5CF",
"<.	c #BCC5D0",
"[.	c #BBC6CF",
"}.	c #BBC6D0",
"|.	c #BCC6D0",
"1.	c #BCC5CF",
"2.	c #BCC6CF",
"3.	c #B8C3CE",
"4.	c #B9C4CE",
"5.	c #B9C3CE",
"6.	c #91969A",
"    . . . . +   .   .                           ",
"@ # $ $ @ @ @ % % $ & % % % % $ $ % $ $ # % & % ",
"* * * * * = * * = - = - - * - - = * - * * * - = ",
"; > ; , ; ; > ' ; ' , > , ' ; > ' > > , , ' , ' ",
") ! ! ! ~ { ! ~ ) ) ! ~ ! ! ] ! ~ ~ ~ ! ) ! ! ) ",
"^ / ( _ : < ^ / < : / ^ ^ < [ _ / } ( ( [ ( [ ^ ",
"| | 1 1 | | 1 1 | 1 2 3 1 1 | | | 1 | 3 | | | 4 ",
"5 6 7 7 8 6 6 6 6 6 5 8 9 6 5 6 6 8 0 5 6 6 5 7 ",
"a a b c c d e a a a b d f c c a c d c a c c c a ",
"g g h g i g g g j j j j j j j j g g k g g g g k ",
"l l m l m m n m j j j j j j j j m m l l o l m m ",
"p q r p q q q s j j t u p p j j p q q q p q p s ",
"v w x w x x v x j j x x v y j j v v v x x x y v ",
"z z A z z z z z j j A A z A j j A A z z A z z A ",
"B C D C C E F G j j D B D C j j C C D H H C I C ",
"J K L L K J K K j j j j j j j j M L L J L J K L ",
"N O O P O P Q N j j j j j j j j N R S O T S P S ",
"U U V V U V U U U V W V U U U U U X X U V U Y U ",
"Z `  ...` ..+.@.` #.` +.Z +...@.$.` ` ` $...` #.",
"%.&.*.=.-.;.>.>.>.-.*.*.*.*.*.-.*.*.=.>.>.-.*.*.",
",.,.,.'.,.,.,.,.,.,.,.,.,.,.,.,.'.,.,.,.,.,.'.,.",
").!.~.!.!.!.{.!.~.).~.~.).~.~.].!.!.!.].!.].!.).",
"^././.^./././././.^.^./.^.(.(.(./././.^././.(./.",
"_._.:.<.[._.:._._.}._._.:._._._.[.:.:.|.1._.<.2.",
"3.4.4.4.4.5.4.4.5.3.4.4.4.5.5.5.4.5.5.4.5.4.5.3.",
"6.6.6.6.6.6.6.6.6.6.6.6.6.6.6.6.6.6.6.6.6.6.6.6."};
