/* XPM */
static char * maximize_toggled_pressed_xpm[] = {
"24 26 134 2",
"  	c #D9DFE3",
". 	c #D8DFE2",
"+ 	c #D9DFE2",
"@ 	c #D8DFE3",
"# 	c #D6DDE1",
"$ 	c #D7DDE1",
"% 	c #D7DDE0",
"& 	c #D6DDE0",
"* 	c #D4DBDF",
"= 	c #D3DBDE",
"- 	c #D4DBDE",
"; 	c #D4DADF",
"> 	c #D2D9DE",
", 	c #D2D9DD",
"' 	c #D1D9DD",
") 	c #D0D7DB",
"! 	c #CFD7DB",
"~ 	c #D0D7DC",
"{ 	c #CFD7DC",
"] 	c #CFD6DB",
"^ 	c #CFD6DC",
"/ 	c #CDD5DA",
"( 	c #CDD4DA",
"_ 	c #CCD5DA",
": 	c #CBD3D8",
"< 	c #CAD3D8",
"[ 	c #CAD3D9",
"} 	c #CBD2D9",
"| 	c #CAD2D8",
"1 	c #CBD3D9",
"2 	c #CBD2D8",
"3 	c #C8D1D6",
"4 	c #C8D1D7",
"5 	c #C8D0D7",
"6 	c #C8D0D6",
"7 	c #C7D1D7",
"8 	c #C6CFD5",
"9 	c #C6CED5",
"0 	c #C5CFD6",
"a 	c #C5CFD5",
"b 	c #C5CED5",
"c 	c #C6CFD6",
"d 	c #C6CED6",
"e 	c #C3CDD4",
"f 	c #C4CDD4",
"g 	c #C4CDD3",
"h 	c #787C80",
"i 	c #C3CDD3",
"j 	c #C1CBD2",
"k 	c #C0CBD2",
"l 	c #C0CAD2",
"m 	c #C1CAD2",
"n 	c #C1CAD1",
"o 	c #BEC8D0",
"p 	c #BEC9D0",
"q 	c #BFC9D0",
"r 	c #BEC9D1",
"s 	c #BFC8D0",
"t 	c #BEC8D1",
"u 	c #BCC7CF",
"v 	c #BCC7CE",
"w 	c #BCC6CF",
"x 	c #B9C5CD",
"y 	c #BAC5CD",
"z 	c #BAC4CD",
"A 	c #B9C5CC",
"B 	c #B9C4CD",
"C 	c #B7C3CC",
"D 	c #B7C2CB",
"E 	c #B7C3CB",
"F 	c #B8C2CB",
"G 	c #B4C1CA",
"H 	c #B5C0C9",
"I 	c #B5C0CA",
"J 	c #B5C1C9",
"K 	c #B4C1C9",
"L 	c #B5C1CA",
"M 	c #B3BEC8",
"N 	c #B2BEC8",
"O 	c #B2BFC8",
"P 	c #B3BFC8",
"Q 	c #B0BCC6",
"R 	c #AFBDC6",
"S 	c #B0BDC7",
"T 	c #B0BDC6",
"U 	c #AFBDC7",
"V 	c #AFBCC7",
"W 	c #B0BCC7",
"X 	c #ADBBC5",
"Y 	c #ADBAC5",
"Z 	c #AEBAC5",
"` 	c #AEBBC5",
" .	c #ADBBC4",
"..	c #AEBAC4",
"+.	c #ABB9C3",
"@.	c #ABB9C4",
"#.	c #ABB8C4",
"$.	c #ABB8C3",
"%.	c #A9B6C2",
"&.	c #A9B7C2",
"*.	c #A8B7C1",
"=.	c #A9B6C1",
"-.	c #A8B6C2",
";.	c #A8B7C2",
">.	c #A9B7C1",
",.	c #A6B5C0",
"'.	c #A7B5C0",
").	c #A7B4C0",
"!.	c #A6B4C0",
"~.	c #A7B5BF",
"{.	c #A4B2BE",
"].	c #A4B3BF",
"^.	c #A4B3BE",
"/.	c #A4B2BF",
"(.	c #A3B2BE",
"_.	c #A2B1BC",
":.	c #A1B0BD",
"<.	c #A2B0BD",
"[.	c #A1B0BC",
"}.	c #A1B1BD",
"|.	c #A2B0BC",
"1.	c #A2B1BD",
"2.	c #A1B1BC",
"3.	c #A0AEBB",
"4.	c #9FAFBB",
"5.	c #9FAEBB",
"6.	c #9CADB9",
"7.	c #9CACBA",
"8.	c #9DACB9",
"9.	c #9CACB9",
"0.	c #9DACBA",
"a.	c #9DADBA",
"b.	c #9DADB9",
"c.	c #9CADBA",
"  . + . . . + @ + + +   . + + + + . . + . + + + ",
"# $ % $ # % # $ # $ $ $ & # # % $ $ & # # % # $ ",
"* * = * - * * * * * * - * * * * * * - * * * * ; ",
"> , ' ' ' , > , , , , , , , , > , > > , , ' ' ' ",
") ! ~ ! { { ! ! { ] { { { ! ! ! { { ^ { { ! { { ",
"/ / ( / / _ _ _ / ( _ _ / / / / / ( / / _ / / / ",
": < [ : : : } < [ [ < : [ : | | [ [ [ [ 1 1 2 < ",
"3 4 4 3 4 4 4 4 4 4 4 5 4 4 6 3 7 4 4 4 3 7 4 4 ",
"8 9 0 a a a b a a a b b a c a 8 8 8 8 c a b b d ",
"e f g e e e f e h h h h h h h h i e i e i e i i ",
"j j j j j k j k h h h h h h h h k k j l k m j n ",
"o p p q r p r p h h p q p s h h p p p o p t r s ",
"u u v u u u u v h h u w v w h h v v u u u u u u ",
"x x x x x y y z h h y z A y h h x B z B x y x y ",
"C D E E C F E C h h E E E E h h E E E C C D C D ",
"G H I J K J G L h h h h h h h h G L L G L J L I ",
"M M N O N N P O h h h h h h h h M P O O P O N O ",
"Q R S T S T U Q Q T T V S V R S T T T W T Q W S ",
"X Y Y Z X ` X ` X ` X X Y Z Y  .X Y ..Z Y Y ` X ",
"+.+.@.#.+.+.+.+.+.$.$.$.$.+.$.+.+.+.+.#.+.$.+.@.",
"%.&.*.=.%.&.&.-.%.;.&.>.&.=.>.&.;.-.>.>.>.*.=.-.",
",.'.).,.!.,.'.!.!.'.~.'.!.,.!.,.,.'.,.'.'.,.,.,.",
"{.].].{.].^./.^.].].{.{.(.]./.{./.^.].{.(.{.^.^.",
"_.:.<._.[.}.}.:.<.:.}.|.}.}.1.}.:.:.:._.2.<.:.2.",
"3.4.4.4.5.5.5.4.5.5.5.5.5.5.4.4.4.4.4.4.5.4.4.4.",
"6.7.8.9.8.0.a.b.c.7.6.a.b.b.9.b.8.9.8.8.9.c.a.a."};
