/* XPM */
static char * maximize_prelight_xpm[] = {
"24 26 137 2",
"  	c #EFF0F2",
". 	c #EFF0F3",
"+ 	c #EFF1F2",
"@ 	c #EFF1F3",
"# 	c #EDEEF1",
"$ 	c #EDEEF0",
"% 	c #EDEFF1",
"& 	c #ECEFF1",
"* 	c #EDEFF0",
"= 	c #EBEDEF",
"- 	c #EBECEF",
"; 	c #EAECEF",
"> 	c #EBEDF0",
", 	c #EAEDF0",
"' 	c #EAEDEF",
") 	c #EBECF0",
"! 	c #E8EBEE",
"~ 	c #E9EBEE",
"{ 	c #E8EAEE",
"] 	c #E7E9EC",
"^ 	c #E6E9ED",
"/ 	c #E6E9EC",
"( 	c #E7E9ED",
"_ 	c #E6EAED",
": 	c #E7EAEC",
"< 	c #E6EAEC",
"[ 	c #E4E7EB",
"} 	c #E4E8EB",
"| 	c #E4E7EC",
"1 	c #E5E7EB",
"2 	c #E5E8EB",
"3 	c #E4E8EC",
"4 	c #E2E6E9",
"5 	c #E2E5E9",
"6 	c #E2E6EA",
"7 	c #E2E5EA",
"8 	c #E3E6EA",
"9 	c #E3E5E9",
"0 	c #E0E4E8",
"a 	c #E0E4E9",
"b 	c #E0E3E8",
"c 	c #DEE2E7",
"d 	c #DDE2E7",
"e 	c #DEE2E6",
"f 	c #DEE3E7",
"g 	c #DBE1E6",
"h 	c #DCE1E5",
"i 	c #DCE0E5",
"j 	c #DCE1E6",
"k 	c #DBE0E6",
"l 	c #DCE0E6",
"m 	c #787C80",
"n 	c #DBE1E5",
"o 	c #DBE0E5",
"p 	c #D9DFE3",
"q 	c #DADEE4",
"r 	c #DADFE4",
"s 	c #D9DFE4",
"t 	c #D9DEE3",
"u 	c #D7DDE2",
"v 	c #D8DDE3",
"w 	c #D7DCE3",
"x 	c #D8DDE2",
"y 	c #D8DCE2",
"z 	c #D7DCE2",
"A 	c #D7DDE3",
"B 	c #D5DBE1",
"C 	c #D6DBE1",
"D 	c #D6DBE2",
"E 	c #D5DCE1",
"F 	c #D5DBE2",
"G 	c #D3D9E0",
"H 	c #D3DAE0",
"I 	c #D3DADF",
"J 	c #D3D9DF",
"K 	c #D4D9DF",
"L 	c #D4D9E0",
"M 	c #D4DAE0",
"N 	c #D1D8DE",
"O 	c #D1D7DE",
"P 	c #D2D8DE",
"Q 	c #D1D8DF",
"R 	c #D1D7DF",
"S 	c #CFD6DD",
"T 	c #CFD6DC",
"U 	c #CFD5DC",
"V 	c #CED6DD",
"W 	c #CDD4DB",
"X 	c #CDD5DB",
"Y 	c #CDD4DC",
"Z 	c #CCD4DB",
"` 	c #CBD2DA",
" .	c #CAD3DA",
"..	c #CBD3DA",
"+.	c #CAD2D9",
"@.	c #CAD2DA",
"#.	c #CBD2D9",
"$.	c #C9D1D9",
"%.	c #C9D0D8",
"&.	c #C8D0D9",
"*.	c #C8D0D8",
"=.	c #C8D1D8",
"-.	c #C9D1D8",
";.	c #C8D1D9",
">.	c #C6CFD7",
",.	c #C7CFD7",
"'.	c #C6CED7",
").	c #C6CFD6",
"!.	c #C4CED5",
"~.	c #C5CDD5",
"{.	c #C4CDD5",
"].	c #C4CDD6",
"^.	c #C5CDD6",
"/.	c #C2CCD4",
"(.	c #C2CBD4",
"_.	c #C3CBD5",
":.	c #C2CBD5",
"<.	c #C2CCD5",
"[.	c #C0C9D3",
"}.	c #C0C9D2",
"|.	c #C0CAD3",
"1.	c #C0CAD2",
"2.	c #BFC9D2",
"3.	c #BFC9D3",
"4.	c #BEC8D1",
"5.	c #BEC8D2",
"6.	c #BDC8D1",
"7.	c #BDC8D2",
"8.	c #BDC7D1",
"9.	c #BBC7D0",
"0.	c #BBC6D0",
"a.	c #BCC7D0",
"b.	c #BCC6CF",
"c.	c #BCC6D0",
"d.	c #BBC6CF",
"e.	c #BBC7CF",
"f.	c #91969A",
"  .       . .   +     +   . . .       @   +     ",
"# $ # % % % & # % & $ * # % # # & # & # # # % # ",
"= - ; - > , ' - ; = , , - , = > ) - ) , = > = = ",
"! ~ ! ! ! ~ ~ ~ ! ~ ~ ! ! ~ ~ ~ ! ! ! ~ ~ ! { ! ",
"] ] ^ ] / ( _ : < ^ ^ ^ / / / ^ / ( ] ] ^ ] ] ] ",
"[ [ } [ | 1 } 1 [ [ [ | [ [ [ [ 2 1 } 3 [ } 1 [ ",
"4 5 6 6 6 5 7 7 8 6 8 4 6 6 6 6 6 7 5 9 7 7 7 6 ",
"0 0 0 a b 0 a 0 0 0 b b 0 0 b 0 0 0 0 0 b 0 0 0 ",
"c d c e c e d e c e f f c c c e d c d c c e c d ",
"g h i j j i k l m m m m m m m m n l l i i h o i ",
"p q q r r s q s m m m m m m m m q r q r r r t p ",
"u u u u v v u w m m x y u x m m z z u A u v u u ",
"B B B B C C D C m m C C B B m m B B B B E F B C ",
"G H H I J J G I m m G J G H m m G G H K J L M J ",
"N N O N N N N P m m N N O N m m N O Q N N N R N ",
"S T T S S S S T m m m m m m m m U S S V S S T S ",
"W X W W W Y W W m m m m m m m m Y Z Z Z Y W W Y ",
"` ` `  ...` +.@.@.` @.` ` @...` ` ..` @.#...@...",
"$.%.&.*.*.=.&.=.*.-.&.;.&.&.=.-.-.;.&.;.$.*.&.-.",
">.>.,.,.>.,.>.>.>.,.,.>.>.,.>.'.).>.>.>.,.>.>.,.",
"!.~.{.!.].{.{.].].].{.].{.!.].{.].~.{.{.{.{.].^.",
"/.(././././.(._./././.(.(.(././.:././.(.<.(./.(.",
"[.}.|.1.|.[.|.|.}.[.|.[.|.}.1.|.|.|.2.|.3.1.[.1.",
"4.5.4.5.4.4.4.4.4.5.4.5.5.4.5.4.6.4.5.7.4.5.4.8.",
"9.0.a.b.c.d.a.c.c.c.c.b.0.b.d.c.0.c.b.b.c.c.c.e.",
"f.f.f.f.f.f.f.f.f.f.f.f.f.f.f.f.f.f.f.f.f.f.f.f."};
