/* XPM */
static char * maximize_toggled_inactive_xpm[] = {
"24 26 85 1",
" 	c #FDFDFF",
".	c #FCFDFF",
"+	c #FCFEFF",
"@	c #FDFEFF",
"#	c #FAFCFF",
"$	c #F9FCFF",
"%	c #FAFDFF",
"&	c #F9FDFF",
"*	c #F7FBFF",
"=	c #F7FAFF",
"-	c #F4F9FF",
";	c #F5FAFF",
">	c #F4FAFF",
",	c #F5F9FF",
"'	c #F2F8FF",
")	c #F1F8FF",
"!	c #F1F9FF",
"~	c #F2F9FF",
"{	c #EEF7FF",
"]	c #EFF7FF",
"^	c #EBF6FF",
"/	c #ECF6FF",
"(	c #ECF5FF",
"_	c #EBF5FF",
":	c #E9F5FF",
"<	c #E9F4FF",
"[	c #E7F3FF",
"}	c #E6F3FF",
"|	c #E7F4FF",
"1	c #E6F4FF",
"2	c #E3F2FF",
"3	c #E4F2FF",
"4	c #787C80",
"5	c #E3F1FF",
"6	c #E0F1FF",
"7	c #E1F0FF",
"8	c #E1F1FF",
"9	c #E0F0FF",
"0	c #DEF0FF",
"a	c #DEEFFF",
"b	c #DDEFFF",
"c	c #DDF0FF",
"d	c #DBEEFF",
"e	c #DCEEFF",
"f	c #DBEDFF",
"g	c #D9EDFF",
"h	c #D8EDFF",
"i	c #D6ECFF",
"j	c #D6EBFF",
"k	c #D7ECFF",
"l	c #D7EBFF",
"m	c #D3EAFF",
"n	c #D4EAFF",
"o	c #D4EBFF",
"p	c #D3EBFF",
"q	c #D0E9FF",
"r	c #D1E9FF",
"s	c #D0EAFF",
"t	c #CEE8FF",
"u	c #CDE8FF",
"v	c #CEE7FF",
"w	c #CBE7FF",
"x	c #CAE6FF",
"y	c #CBE6FF",
"z	c #C8E6FF",
"A	c #C8E5FF",
"B	c #C9E6FF",
"C	c #C9E5FF",
"D	c #C6E4FF",
"E	c #C5E4FF",
"F	c #C3E3FF",
"G	c #C3E2FF",
"H	c #C2E2FF",
"I	c #C2E3FF",
"J	c #C0E2FF",
"K	c #C0E1FF",
"L	c #BFE2FF",
"M	c #BFE1FF",
"N	c #BDE0FF",
"O	c #BDE1FF",
"P	c #BADFFF",
"Q	c #BBDFFF",
"R	c #BADEFF",
"S	c #BBDEFF",
"T	c #E7EEF5",
" .  +. ...  ++@  .. +   ",
"#$###%#$$#$######&###$##",
"***=****=***==****==****",
"-;;>-,>>->-;;-->>;>-,>->",
"'''))!~'!)!~))')!!)))))~",
"{{]]]{]]]]{{]]{]]]]{]]]{",
"^////^////(//(/((/(///_/",
":<<<:<:<:<::::<<<:<<:<<<",
"[[}}|}[}}}}[}[}[}}}[}}1}",
"233223234444444433522332",
"677888874444444498976978",
"0aaabc0b4400ab440b0a0baa",
"dddddedd44dddd44ddddfddd",
"gggggggg44ghgg44gggggggg",
"ijiikkil44liii44iiijkiji",
"mnmnmnno44444444pmnpmopm",
"qrqqrrsq44444444rrqrrqrr",
"tutuuttuvvtuttutttutttut",
"wxwwwyywyyyyyywwywwwwwyw",
"zAAzAAAAABAAAABBAzAACzAB",
"DEEEDEEDEEDEEEEEDDDDDDDE",
"FFFGHFHFFFIGFHFGFHFIIGIF",
"JJKLKKKJJKJMKMKKLKJJKJJK",
"NNNNONNNNNONOONNONNNNNNO",
"PPQPPPQQPQRPPSPPPPPPQPPP",
"TTTTTTTTTTTTTTTTTTTTTTTT"};
