/* XPM */
static char * shade_toggled_prelight_xpm[] = {
"24 26 131 2",
"  	c #F1F1F4",
". 	c #F0F1F4",
"+ 	c #F1F2F4",
"@ 	c #F0F2F3",
"# 	c #F1F1F3",
"$ 	c #F1F2F3",
"% 	c #F0F1F3",
"& 	c #F0F2F4",
"* 	c #EEEFF2",
"= 	c #EEF0F2",
"- 	c #EEEFF3",
"; 	c #ECEEF1",
"> 	c #ECEDF0",
", 	c #ECEEF0",
"' 	c #EBEDF0",
") 	c #EBEEF0",
"! 	c #E9ECEF",
"~ 	c #E9EBEF",
"{ 	c #EAECEF",
"] 	c #EAEBEE",
"^ 	c #EAECEE",
"/ 	c #E7EAEE",
"( 	c #E7EAED",
"_ 	c #E8EAEE",
": 	c #E8EAED",
"< 	c #E8E9ED",
"[ 	c #E5E8EC",
"} 	c #E5E8EB",
"| 	c #E4E8EC",
"1 	c #E3E6EA",
"2 	c #E3E6EB",
"3 	c #E2E7EA",
"4 	c #E2E6EA",
"5 	c #E3E7EA",
"6 	c #E2E6EB",
"7 	c #E1E4E9",
"8 	c #E0E5E9",
"9 	c #E0E4E8",
"0 	c #E0E4E9",
"a 	c #E1E4E8",
"b 	c #DFE2E7",
"c 	c #DEE2E7",
"d 	c #DEE3E7",
"e 	c #DEE3E8",
"f 	c #DCE0E6",
"g 	c #DCE0E5",
"h 	c #DBE0E6",
"i 	c #DCE1E6",
"j 	c #DBE1E6",
"k 	c #DCE1E5",
"l 	c #787C80",
"m 	c #DBE1E5",
"n 	c #D9DFE4",
"o 	c #DADFE4",
"p 	c #DADEE4",
"q 	c #D9DEE4",
"r 	c #D7DDE3",
"s 	c #D8DDE3",
"t 	c #D7DCE2",
"u 	c #D7DDE2",
"v 	c #D7DCE3",
"w 	c #D8DDE2",
"x 	c #D8DCE2",
"y 	c #D5DAE1",
"z 	c #D5DBE1",
"A 	c #D3D9DF",
"B 	c #D2D9DF",
"C 	c #D3D9E0",
"D 	c #D3D8DF",
"E 	c #D2D8DF",
"F 	c #D2D9E0",
"G 	c #D0D7DE",
"H 	c #D0D7DD",
"I 	c #D1D7DE",
"J 	c #D1D7DD",
"K 	c #D0D6DD",
"L 	c #D1D6DE",
"M 	c #CED5DC",
"N 	c #CFD5DC",
"O 	c #CED5DD",
"P 	c #CFD5DD",
"Q 	c #CBD3DA",
"R 	c #CCD3DB",
"S 	c #CBD3DB",
"T 	c #CCD3DA",
"U 	c #CCD4DA",
"V 	c #CAD1D9",
"W 	c #C9D1DA",
"X 	c #CAD1DA",
"Y 	c #C9D1D9",
"Z 	c #CAD2D9",
"` 	c #C9D2D9",
" .	c #CAD2DA",
"..	c #C9D2DA",
"+.	c #C7CFD7",
"@.	c #C8D0D8",
"#.	c #C8CFD8",
"$.	c #C7D0D7",
"%.	c #C7CFD8",
"&.	c #C7D0D8",
"*.	c #C8CFD7",
"=.	c #C4CDD6",
"-.	c #C5CED6",
";.	c #C5CDD6",
">.	c #C4CED6",
",.	c #C3CCD5",
"'.	c #C3CBD5",
").	c #C2CCD5",
"!.	c #C2CBD4",
"~.	c #C3CBD4",
"{.	c #C2CBD5",
"].	c #C2CCD4",
"^.	c #C1CAD3",
"/.	c #C0CAD3",
"(.	c #C0C9D3",
"_.	c #C1C9D3",
":.	c #BEC8D2",
"<.	c #BEC7D1",
"[.	c #BEC8D1",
"}.	c #BEC7D2",
"|.	c #BCC6D0",
"1.	c #BBC6D0",
"2.	c #BBC5D0",
"3.	c #BCC5D0",
"4.	c #BCC6CF",
"5.	c #B9C4CE",
"6.	c #B9C4CF",
"7.	c #BAC4CF",
"8.	c #BAC4CE",
"9.	c #B9C3CF",
"0.	c #91969A",
"  . . + . @ # @ $ + $ . % .   # + % .     + & . ",
"* = * * * * * = = - = = = = * = * - = = = = = = ",
"; > , ' , , ) , ; ; , , > ' > , ; ; ; ) > , ; ; ",
"! ~ { { ] { ! { ~ { ^ ! { ! { { { { ~ { ~ { { { ",
"/ ( _ ( ( ( ( : ( ( / ( / / : ( / ( < / ( _ / / ",
"[ [ [ [ } } [ [ | [ } } [ } } [ [ [ [ [ [ [ [ [ ",
"1 1 2 1 1 3 4 5 6 6 4 2 1 3 1 1 1 4 4 1 2 1 1 2 ",
"7 8 7 9 8 9 7 8 7 7 0 7 0 7 7 0 a 7 0 a 0 9 a 7 ",
"b c d d e e c c b c c c e d e d e d c c c c c c ",
"f g h i j f g g k g f l l g m j i f i h h i k g ",
"n n o o p n o p o q o l l p q q o p p n q p p n ",
"r s t s s t r r u t r l l t t v w r w r u r x u ",
"y y z y z z z l l l z l l y l l l z z y z z y z ",
"A B C D A A A C l l l l l l l l B E F A A A D A ",
"G G H I G G I G J l l l l l l G I K I G G G L G ",
"M N M M O M O M M O l l l l M M O M M M O O P M ",
"Q R R R R R S R R T R l l R S R R T R R U R R T ",
"V V V W X V Y V Z ` V Y V Y Y X Y Y Y Y  ...V V ",
"+.@.+.#.$.#.%.%.&.#.%.@.+.*.%.+.*.%.+.#.%.%.+.%.",
"=.-.-.=.;.;.-.-.;.;.;.;.-.>.;.;.=.-.;.-.;.-.;.-.",
",.'.'.).'.'.!.~.!.{.,.'.'.'.~.~.,.{.,.,.'.{.].'.",
"^././.(.(.(._.(./././.(././.^.(._.(.^.(./._././.",
":.:.<.:.<.[.[.}.:.<.<.[.}.[.:.<.:.:.:.[.<.:.:.[.",
"|.|.1.|.|.1.|.|.|.2.|.|.|.|.|.|.|.|.1.3.1.|.4.|.",
"5.5.6.5.6.7.8.8.5.5.8.8.6.8.5.5.5.6.5.9.5.8.9.7.",
"0.0.0.0.0.0.0.0.0.0.0.0.0.0.0.0.0.0.0.0.0.0.0.0."};
