/* XPM */
static char * shade_pressed_xpm[] = {
"24 26 127 2",
"  	c #D9DFE2",
". 	c #DADFE2",
"+ 	c #D9DFE3",
"@ 	c #D8DDE1",
"# 	c #D7DDE1",
"$ 	c #D8DDE0",
"% 	c #D7DDE0",
"& 	c #D7DCE1",
"* 	c #D5DBDF",
"= 	c #D5DADF",
"- 	c #D4DBDF",
"; 	c #D2D9DD",
"> 	c #D3D9DE",
", 	c #D3D9DD",
"' 	c #D2D9DE",
") 	c #D0D7DC",
"! 	c #D0D7DB",
"~ 	c #CDD5DA",
"{ 	c #CDD5DB",
"] 	c #CED5DB",
"^ 	c #CED5DA",
"/ 	c #CED4DB",
"( 	c #CED4DA",
"_ 	c #CBD3D8",
": 	c #CBD3D9",
"< 	c #CBD2D9",
"[ 	c #CBD2D8",
"} 	c #C9D1D8",
"| 	c #C8D1D7",
"1 	c #C9D1D7",
"2 	c #C9D0D7",
"3 	c #C8D0D7",
"4 	c #C6CED6",
"5 	c #C7CED5",
"6 	c #C6CED5",
"7 	c #C7CFD6",
"8 	c #C6CFD6",
"9 	c #C6CFD5",
"0 	c #C7CFD5",
"a 	c #C3CDD4",
"b 	c #C4CDD4",
"c 	c #C3CDD3",
"d 	c #C4CDD3",
"e 	c #C4CCD4",
"f 	c #787C80",
"g 	c #C1CBD2",
"h 	c #C1CBD3",
"i 	c #C2CBD2",
"j 	c #C1CAD3",
"k 	c #C1CAD2",
"l 	c #C2CBD3",
"m 	c #BFC9D1",
"n 	c #BFC8D1",
"o 	c #BEC9D1",
"p 	c #BFC9D0",
"q 	c #BEC9D0",
"r 	c #BDC7CF",
"s 	c #BCC7CF",
"t 	c #BDC6CF",
"u 	c #BDC6D0",
"v 	c #BCC6CF",
"w 	c #BCC7D0",
"x 	c #BCC6D0",
"y 	c #BDC7D0",
"z 	c #BAC4CD",
"A 	c #BAC4CE",
"B 	c #BAC5CE",
"C 	c #BAC5CD",
"D 	c #B8C3CC",
"E 	c #B7C3CC",
"F 	c #B8C2CC",
"G 	c #B7C2CC",
"H 	c #B8C3CB",
"I 	c #B8C2CB",
"J 	c #B5C0CA",
"K 	c #B5C1CB",
"L 	c #B5C1CA",
"M 	c #B5C0CB",
"N 	c #B6C1CB",
"O 	c #B3BFC8",
"P 	c #B3BEC9",
"Q 	c #B2BFC9",
"R 	c #B3BFC9",
"S 	c #B2BEC9",
"T 	c #B2BEC8",
"U 	c #B2BFC8",
"V 	c #B0BDC7",
"W 	c #B0BCC7",
"X 	c #B1BDC7",
"Y 	c #B0BDC8",
"Z 	c #B1BCC7",
"` 	c #AEBBC5",
" .	c #AEBBC6",
"..	c #ADBAC6",
"+.	c #AEBAC5",
"@.	c #AEBAC6",
"#.	c #ADBBC5",
"$.	c #ADBAC5",
"%.	c #ADBBC6",
"&.	c #ACB9C4",
"*.	c #ACB8C4",
"=.	c #ABB8C4",
"-.	c #ABB9C4",
";.	c #ABB9C3",
">.	c #AAB7C2",
",.	c #AAB7C3",
"'.	c #A9B7C3",
").	c #A9B7C2",
"!.	c #A9B8C3",
"~.	c #A7B5C1",
"{.	c #A7B5C2",
"].	c #A5B3C0",
"^.	c #A4B3BF",
"/.	c #A4B3C0",
"(.	c #A5B3BF",
"_.	c #A5B4C0",
":.	c #A2B1BD",
"<.	c #A2B1BE",
"[.	c #A3B1BE",
"}.	c #A2B2BE",
"|.	c #9FAFBD",
"1.	c #A0AFBD",
"2.	c #9FAFBC",
"3.	c #A0AFBC",
"4.	c #9EADBB",
"5.	c #9DADBB",
"6.	c #9DADBA",
"  . . . + + . . .     + + .   . . . . . . . . . ",
"@ # @ $ % $ $ % @ % # & @ % $ $ @ $ % @ # @ $ @ ",
"* * * * * * * * = * * * * * * * * * * - * * * * ",
"; > , ' ; , > ; ; ' , ; > ' ; ; , > ; ' ' ; , , ",
") ) ) ) ! ) ) ) ) ) ) ) ) ) ) ! ! ) ) ) ) ) ) ! ",
"~ { ~ ] ] ] ^ ^ ^ { ^ ~ ^ ] ^ / ~ ( ^ ~ ~ ^ ^ ~ ",
"_ : _ _ < : < _ : : : : [ : _ _ : : : : : : : : ",
"} | 1 1 } 2 2 } | 3 1 3 | 1 | | 1 1 3 1 1 2 | | ",
"4 5 6 7 8 8 9 8 9 8 0 8 8 8 8 0 7 8 9 7 9 5 6 9 ",
"a b b b c d e b a b b f f b b a b e b b a b b a ",
"g h i g i h j h g k f f f f l k k g g i i i g h ",
"m m n m o p p m m f f f f f f p q m m p m m p o ",
"r r s t t u s s f f f f f f f f v w r s x r y s ",
"z A A B z C C f f f C f f C f f f A C B z C C A ",
"D E F E D F E E D G G f f H D I E F D E G H E D ",
"J K L L K J K J L L K f f L M J K K L K K K N L ",
"O P P Q R P R R R O R f f S T Q U R R R Q Q R O ",
"V W X V V Y V W V X V V X W W W V V X X Z Z W V ",
"`  . . ... ...+.` ` ..@.#.`  .$. .@.` $.` %.` ` ",
"&.*.=.=.=.&.*.-.&.-.-.-.;.=.&.-.-.=.&.=.*.&.&.&.",
">.,.'.'.).,.,.,.,.,.'.,.>.'.>.).'.).,.'.,.).,.!.",
"~.~.~.~.~.~.~.~.~.~.~.{.~.~.~.~.{.~.~.~.~.~.~.~.",
"].^.].^./.].^.^.(.^./.]./.^.].]./._.]./.^.(.(.].",
":.<.<.[.<.<.<.<.<.<.<.<.<.[.<.<.<.[.<.<.<.}.<.<.",
"|.1.|.2.1.1.3.3.|.3.3.1.3.3.1.3.2.1.1.1.3.2.3.3.",
"4.5.5.5.5.5.6.5.5.4.6.5.6.5.5.6.6.5.5.6.4.6.5.5."};
