/* XPM */
static char * shade_prelight_xpm[] = {
"24 26 140 2",
"  	c #F0F1F3",
". 	c #F0F2F3",
"+ 	c #F0F1F4",
"@ 	c #EFF1F3",
"# 	c #EEEFF2",
"$ 	c #EEF0F1",
"% 	c #EDEFF2",
"& 	c #EEEFF1",
"* 	c #EDF0F1",
"= 	c #EDEFF1",
"- 	c #EBEDF0",
"; 	c #EBEEF0",
"> 	c #ECEDF0",
", 	c #EBEDF1",
"' 	c #EBEEF1",
") 	c #E9EBEE",
"! 	c #E9EBEF",
"~ 	c #E9ECEF",
"{ 	c #E9ECEE",
"] 	c #E7EAED",
"^ 	c #E7E9ED",
"/ 	c #E6E9ED",
"( 	c #E6EAED",
"_ 	c #E4E8EB",
": 	c #E5E8EB",
"< 	c #E4E7EC",
"[ 	c #E4E7EB",
"} 	c #E5E8EC",
"| 	c #E5E7EC",
"1 	c #E4E8EC",
"2 	c #E3E5EA",
"3 	c #E3E6EA",
"4 	c #E2E6EA",
"5 	c #E2E5EA",
"6 	c #E2E6E9",
"7 	c #DFE4E8",
"8 	c #E0E4E9",
"9 	c #E0E4E8",
"0 	c #DFE3E9",
"a 	c #E0E3E8",
"b 	c #DFE4E9",
"c 	c #E0E3E9",
"d 	c #DEE1E7",
"e 	c #DDE2E7",
"f 	c #DEE2E7",
"g 	c #DDE2E6",
"h 	c #DDE1E7",
"i 	c #DEE1E6",
"j 	c #DEE2E6",
"k 	c #DBE0E5",
"l 	c #DBE0E6",
"m 	c #787C80",
"n 	c #DCE0E6",
"o 	c #DCDFE5",
"p 	c #D9DEE4",
"q 	c #D8DEE3",
"r 	c #D9DEE3",
"s 	c #D7DCE2",
"t 	c #D7DDE2",
"u 	c #D6DDE2",
"v 	c #D6DCE2",
"w 	c #D7DCE3",
"x 	c #D6DCE3",
"y 	c #D4DAE1",
"z 	c #D5DAE0",
"A 	c #D4DAE0",
"B 	c #D4DBE1",
"C 	c #D4DBE0",
"D 	c #D5DBE0",
"E 	c #D5DAE1",
"F 	c #D5DBE1",
"G 	c #D2D8DF",
"H 	c #D2D9DF",
"I 	c #D2D9E0",
"J 	c #D3D8DF",
"K 	c #CFD6DD",
"L 	c #D0D6DE",
"M 	c #CFD6DE",
"N 	c #D0D7DE",
"O 	c #D0D7DD",
"P 	c #CFD7DE",
"Q 	c #D0D6DD",
"R 	c #CFD7DD",
"S 	c #CED5DC",
"T 	c #CDD4DC",
"U 	c #CED4DC",
"V 	c #CED5DB",
"W 	c #CED4DB",
"X 	c #CDD5DC",
"Y 	c #CBD3DA",
"Z 	c #CCD3DA",
"` 	c #CBD3DB",
" .	c #CBD2DA",
"..	c #CCD2DB",
"+.	c #CBD2DB",
"@.	c #CCD2DA",
"#.	c #C9D0D9",
"$.	c #C9D1D9",
"%.	c #C9D1D8",
"&.	c #C8D1D9",
"*.	c #C9D0D8",
"=.	c #C8D0D9",
"-.	c #C7CFD8",
";.	c #C7CFD7",
">.	c #C6CFD7",
",.	c #C6CFD8",
"'.	c #C7CED7",
").	c #C5CDD5",
"!.	c #C4CDD5",
"~.	c #C4CDD6",
"{.	c #C5CDD6",
"].	c #C3CCD5",
"^.	c #C2CBD4",
"/.	c #C3CBD4",
"(.	c #C3CBD5",
"_.	c #C2CCD4",
":.	c #C2CCD5",
"<.	c #C3CCD4",
"[.	c #C0CAD3",
"}.	c #C0C9D3",
"|.	c #C1C9D3",
"1.	c #C1CAD3",
"2.	c #BEC8D1",
"3.	c #BEC7D1",
"4.	c #BEC7D2",
"5.	c #BEC8D2",
"6.	c #BCC6D0",
"7.	c #BCC5D0",
"8.	c #BCC6CF",
"9.	c #BCC5CF",
"0.	c #BBC6D0",
"a.	c #BBC6CF",
"b.	c #BAC4CE",
"c.	c #B9C4CE",
"d.	c #BAC3CE",
"e.	c #BAC4CF",
"f.	c #B9C3CE",
"g.	c #B9C4CF",
"h.	c #B9C3CF",
"i.	c #91969A",
"  . + @ +     @             + . +     +         ",
"# $ # % & # & & & % * # % % = # $ % & & % # $ & ",
"- ; > - , - > ; > - - ; - - ; - - > ' > - - ' - ",
") ! ~ ! ) ) ~ ! { ) { ) ~ ) ! ) ~ ! ~ ! ~ ! ) ! ",
"] ^ ^ ^ / ] ^ ] / ^ / ] / ( ] / / ^ / ] ^ ] ^ ] ",
"_ : < < _ [ : _ < } | < _ | < [ [ : _ 1 < 1 _ 1 ",
"2 3 4 5 4 5 2 4 3 4 5 6 4 6 4 2 6 6 5 4 5 5 5 4 ",
"7 8 9 8 0 9 8 9 8 8 9 9 a 9 b a 9 9 7 9 8 8 7 c ",
"d e d e f e g f h d h f d f g e h f i f e j e f ",
"k k l k k k k k k l k m m n k o k k k k k l k l ",
"p q r r p r p p p p m m m m p p p p r p p p p p ",
"s t u u s s u v s m m m m m m v w w u t x v v v ",
"y y z A B y C D m m m m m m m m y y z E F y y y ",
"G H G I G G H m m m G m m G m m m G G G J G G G ",
"K L M N O P O N N O P m m P L L L L Q Q Q R L N ",
"S T U V W S X S S T S m m T S U S T S S T S X U ",
"Y Y Z Y Y Y ` Y  ...Z m m  .Z Y Y +.@.+.` ` ` Z ",
"#.$.$.$.$.$.$.#.$.$.$.%.&.*.$.#.$.$.#.$.#.=.$.$.",
"-.-.;.;.>.>.-.,.;.;.'.-.;.-.-.;.>.-.-.;.,.;.>.;.",
").!.!.).).!.~.~.~.!.).~.!.{.{.~.~.{.!.~.~.!.{.!.",
"].^./.(.(._.].].].]././._./.:.<.(.(.(.:.].^.].].",
"[.}.}.}.}.[.|.}.1.}.1.1.[.[.[.}.[.1.1.1.[.[.[.[.",
"2.3.2.4.5.2.2.2.4.2.3.5.2.2.4.4.4.2.5.2.4.5.4.4.",
"6.6.6.7.7.7.8.9.6.0.7.6.7.6.6.9.a.0.6.0.6.7.6.6.",
"b.c.d.e.b.f.c.c.e.e.b.e.g.b.c.f.h.e.b.b.c.b.c.c.",
"i.i.i.i.i.i.i.i.i.i.i.i.i.i.i.i.i.i.i.i.i.i.i.i."};
