/* XPM */
static char * shade_toggled_active_xpm[] = {
"24 26 135 2",
"  	c #D9DFE2",
". 	c #D8DFE2",
"+ 	c #D8DFE3",
"@ 	c #D6DDE0",
"# 	c #D6DDE1",
"$ 	c #D7DDE0",
"% 	c #D7DDE1",
"& 	c #D4DBDF",
"* 	c #D2D9DE",
"= 	c #D2D9DD",
"- 	c #D1D9DD",
"; 	c #D1D8DE",
"> 	c #D1D9DE",
", 	c #D1D8DD",
"' 	c #CFD7DB",
") 	c #CFD7DC",
"! 	c #CFD6DC",
"~ 	c #D0D7DC",
"{ 	c #CDD5DA",
"] 	c #CCD5DA",
"^ 	c #CDD4DA",
"/ 	c #CDD5DB",
"( 	c #CBD3D9",
"_ 	c #CAD3D9",
": 	c #CAD3D8",
"< 	c #CBD2D8",
"[ 	c #CBD2D9",
"} 	c #CAD2D9",
"| 	c #CAD2D8",
"1 	c #CBD3D8",
"2 	c #C8D1D7",
"3 	c #C8D0D7",
"4 	c #C8D1D8",
"5 	c #C7D1D7",
"6 	c #C5CFD5",
"7 	c #C6CFD5",
"8 	c #C5CFD6",
"9 	c #C6CED6",
"0 	c #C6CFD6",
"a 	c #C5CED5",
"b 	c #C6CED5",
"c 	c #C5CED6",
"d 	c #C3CDD4",
"e 	c #C4CDD4",
"f 	c #C3CCD3",
"g 	c #1E1F20",
"h 	c #C4CCD4",
"i 	c #C3CCD4",
"j 	c #C0CBD2",
"k 	c #C1CBD2",
"l 	c #C1CAD3",
"m 	c #C0CAD2",
"n 	c #C0CAD3",
"o 	c #C1CBD3",
"p 	c #C1CAD2",
"q 	c #BEC9D1",
"r 	c #BFC8D1",
"s 	c #BFC9D1",
"t 	c #BFC9D0",
"u 	c #BEC9D0",
"v 	c #BCC7CF",
"w 	c #BBC7CF",
"x 	c #BCC6CF",
"y 	c #BCC7D0",
"z 	c #BAC4CE",
"A 	c #B9C5CE",
"B 	c #BAC5CD",
"C 	c #B9C5CD",
"D 	c #B9C4CE",
"E 	c #B9C4CD",
"F 	c #BAC5CE",
"G 	c #B7C3CC",
"H 	c #B8C3CC",
"I 	c #B7C2CC",
"J 	c #B8C2CC",
"K 	c #B5C1CA",
"L 	c #B4C0CA",
"M 	c #B4C1CB",
"N 	c #B4C1CA",
"O 	c #B5C1CB",
"P 	c #B5C0CA",
"Q 	c #B4C0CB",
"R 	c #B3BEC9",
"S 	c #B2BFC9",
"T 	c #B2BFC8",
"U 	c #B2BEC9",
"V 	c #B3BFC9",
"W 	c #B3BFC8",
"X 	c #B0BDC7",
"Y 	c #B0BCC7",
"Z 	c #AFBDC7",
"` 	c #B0BDC8",
" .	c #AEBBC5",
"..	c #ADBBC5",
"+.	c #ADBAC6",
"@.	c #ADBBC6",
"#.	c #ADBAC5",
"$.	c #AEBAC6",
"%.	c #AEBAC5",
"&.	c #AEBBC6",
"*.	c #ABB9C4",
"=.	c #ABB8C4",
"-.	c #ACB9C4",
";.	c #ABB9C3",
">.	c #A8B7C2",
",.	c #A8B7C3",
"'.	c #A9B7C3",
").	c #A9B7C2",
"!.	c #A9B6C3",
"~.	c #A9B6C2",
"{.	c #A8B6C2",
"].	c #A6B5C1",
"^.	c #A6B4C1",
"/.	c #A7B5C0",
"(.	c #A6B5C0",
"_.	c #A7B5C1",
":.	c #A7B4C1",
"<.	c #A6B4C0",
"[.	c #A4B3BF",
"}.	c #A3B2C0",
"|.	c #A3B3BF",
"1.	c #A4B2C0",
"2.	c #A3B2BF",
"3.	c #A4B2BF",
"4.	c #A1B1BD",
"5.	c #A1B1BE",
"6.	c #A2B1BE",
"7.	c #A1B0BE",
"8.	c #A1B0BD",
"9.	c #A2B1BD",
"0.	c #A2B0BE",
"a.	c #9FAEBC",
"b.	c #9FAFBC",
"c.	c #A0AFBC",
"d.	c #91969A",
"  . +               .   +               +     . ",
"@ # # $ # # # # # $ @ % # @ # $ % % % # % @ # % ",
"& & & & & & & & & & & & & & & & & & & & & & & & ",
"* * = - - ; - * * = * = * > - , = > > = * = * - ",
"' ) ! ) ~ ) ) ) ) ) ) ) ) ) ) ) ' ) ' ) ) ) ) ~ ",
"{ ] ^ / ] ^ ] { { { { ^ / { / { { ] { { { { / ] ",
"( _ : : ( ( < [ } : : ( _ ( | 1 _ _ _ _ [ ( 1 _ ",
"2 2 2 2 3 2 4 2 5 4 2 2 2 2 2 2 2 2 2 2 2 2 3 2 ",
"6 7 8 8 7 9 0 a 8 6 b 0 b b 0 0 0 c a b 9 7 6 8 ",
"d e f d d e d d d e e g g h e e i d d e i i e d ",
"j k k k l m k j n o k g g k k j o k k j k p k o ",
"q q r r q s t q s q u g g u u s q s q u q s q s ",
"v w v v v x y g g g v g g v g g g x v x v x x x ",
"z A B B A C A B g g g g g g g g A B A D A E F C ",
"G G G G H G G G I g g g g g g G G J I G I I I G ",
"K K L M M M N K O K g g g g P P P P K L O N Q L ",
"R S S R S T S U R V V g g R V S S S S S S S W U ",
"X X Y Y X X Y X Z X ` ` X X Y X X Z Y Y Y X ` X ",
" ...+.@.+.@.#. .#.$.....$.@.#. .@.%.@.&...$.....",
"*.=.-.;.*.*.=.=.*.;.=.;.*.=.=.*.*.=.*.*.*.*.=.*.",
">.,.'.).!.'.).'.).).'.>.~.~.'.{.,.>.{.~.).!.).).",
"].].^.].^.]./.^.^.(._.^.^.^.^.:.^.^.]._.^.<./.].",
"[.}.[.[.[.|.[.[.1.[.2.1.[.[.|.3.|.|.[.[.[.|.1.[.",
"4.4.5.6.7.4.5.5.6.5.5.7.6.7.6.8.6.6.9.7.9.4.0.7.",
"a.b.a.b.a.b.b.b.b.a.b.b.a.c.a.b.a.b.b.a.a.a.a.b.",
"d.d.d.d.d.d.d.d.d.d.d.d.d.d.d.d.d.d.d.d.d.d.d.d."};
