/* XPM */
static char * shade_toggled_pressed_xpm[] = {
"24 26 143 2",
"  	c #DADFE3",
". 	c #D9DFE2",
"+ 	c #DADFE2",
"@ 	c #D8DDE0",
"# 	c #D7DDE1",
"$ 	c #D7DDE0",
"% 	c #D8DDE1",
"& 	c #D7DCE0",
"* 	c #D5DBDF",
"= 	c #D5DADF",
"- 	c #D4DBDF",
"; 	c #D2D9DD",
"> 	c #D3D8DE",
", 	c #D3D9DE",
"' 	c #D2D9DE",
") 	c #D3D9DD",
"! 	c #D2D8DE",
"~ 	c #D2D8DD",
"{ 	c #D0D7DC",
"] 	c #D0D6DC",
"^ 	c #D0D6DB",
"/ 	c #D0D7DB",
"( 	c #CDD5DA",
"_ 	c #CED4DA",
": 	c #CED5DA",
"< 	c #CDD4DA",
"[ 	c #CDD5DB",
"} 	c #CDD4DB",
"| 	c #CED4DB",
"1 	c #CBD3D9",
"2 	c #CBD2D9",
"3 	c #CBD3D8",
"4 	c #CBD2D8",
"5 	c #C9D0D7",
"6 	c #C9D1D7",
"7 	c #C8D1D7",
"8 	c #C6CFD5",
"9 	c #C6CED5",
"0 	c #C7CED5",
"a 	c #C6CFD6",
"b 	c #C7CFD5",
"c 	c #C7CED6",
"d 	c #C6CED6",
"e 	c #C7CFD6",
"f 	c #C4CDD3",
"g 	c #C3CCD4",
"h 	c #C4CDD4",
"i 	c #C4CCD4",
"j 	c #C4CCD3",
"k 	c #787C80",
"l 	c #C3CDD4",
"m 	c #C2CBD3",
"n 	c #C2CAD2",
"o 	c #C1CAD2",
"p 	c #C1CBD3",
"q 	c #C1CAD3",
"r 	c #C1CBD2",
"s 	c #BFC8D0",
"t 	c #BFC8D1",
"u 	c #BFC9D1",
"v 	c #BEC9D1",
"w 	c #BEC8D1",
"x 	c #BEC8D0",
"y 	c #BFC9D0",
"z 	c #BDC6CF",
"A 	c #BCC6CF",
"B 	c #BCC7CF",
"C 	c #BCC6D0",
"D 	c #BBC5CE",
"E 	c #BAC5CE",
"F 	c #BAC5CD",
"G 	c #B8C2CC",
"H 	c #B8C3CC",
"I 	c #B8C2CD",
"J 	c #B9C2CD",
"K 	c #B9C2CC",
"L 	c #B8C3CD",
"M 	c #B6C0CB",
"N 	c #B6C1CA",
"O 	c #B5C1CA",
"P 	c #B5C0CB",
"Q 	c #B5C1CB",
"R 	c #B6C1CB",
"S 	c #B5C0CA",
"T 	c #B3BFC9",
"U 	c #B4BEC9",
"V 	c #B3BEC9",
"W 	c #B4BFC9",
"X 	c #B3BFCA",
"Y 	c #B4BECA",
"Z 	c #B3BECA",
"` 	c #B1BDC7",
" .	c #B0BDC8",
"..	c #B1BDC8",
"+.	c #B0BCC7",
"@.	c #B0BDC7",
"#.	c #B1BCC7",
"$.	c #B1BCC8",
"%.	c #B0BCC8",
"&.	c #AFBAC6",
"*.	c #AEBAC6",
"=.	c #AEBBC6",
"-.	c #AFBBC6",
";.	c #ACB8C5",
">.	c #ACB8C4",
",.	c #ABB8C5",
"'.	c #ACB9C4",
").	c #ACB9C5",
"!.	c #ABB9C5",
"~.	c #ABB8C4",
"{.	c #A9B6C3",
"].	c #A9B7C3",
"^.	c #AAB6C3",
"/.	c #AAB7C3",
"(.	c #AAB7C2",
"_.	c #AAB6C2",
":.	c #A9B6C2",
"<.	c #A7B4C1",
"[.	c #A7B5C1",
"}.	c #A7B5C2",
"|.	c #A7B4C2",
"1.	c #A5B3C0",
"2.	c #A5B2BF",
"3.	c #A4B3BF",
"4.	c #A4B2C0",
"5.	c #A4B2BF",
"6.	c #A5B2C0",
"7.	c #A4B3C0",
"8.	c #A5B3BF",
"9.	c #A2B0BE",
"0.	c #A3B0BE",
"a.	c #A2B1BE",
"b.	c #A0AEBC",
"c.	c #9FAEBC",
"d.	c #A0AEBD",
"e.	c #9FAEBD",
"f.	c #9FAFBC",
"g.	c #A0AFBC",
"h.	c #9DACBB",
"i.	c #9DADBB",
"j.	c #9DACBA",
"k.	c #9EACBB",
"l.	c #9EACBA",
"  . + + + + + +   + + + +   + + + + + + + . +   ",
"@ # $ $ % # @ $ % $ # @ # # # $ @ $ & # $ # # $ ",
"* = * - * * - * * * * * * * * = * * * * * * * * ",
"; > ; , ' ) ! ; ) , ~ ! ; ~ ; > ) ! ) ) ; ; , ' ",
"{ { { { ] { ] { ^ { ] { { ] / { { { { / { { { { ",
"( _ : _ ( < : < [ } | } ( < ( _ _ ( < } : : : ( ",
"1 2 1 3 2 1 2 4 1 3 1 4 1 2 4 2 1 4 1 3 1 2 2 1 ",
"5 6 7 6 6 5 7 5 7 6 6 5 7 6 6 6 6 7 5 6 6 6 6 5 ",
"8 9 0 a 8 8 b c 9 8 9 8 9 8 9 d e 9 d c d d 8 9 ",
"f g h h i i g j i i i k k i h j i g h g i h l h ",
"m n o p m q n q q q r k k r r o o r m p o q q o ",
"s s t s t u u s t t u k k s u v t t w x w y u w ",
"z z A A B z B k k k z k k A k k k C A A C A z A ",
"D D D E E F D D k k k k k k k k D D E D D D D D ",
"G H I H H G G G J k k k k k k K L H H H H G G G ",
"M N N O P M Q P R R k k k k M R R S M O P R O M ",
"T U V T W T V V U X T k k W T U V Y T Z W V T U ",
"`  .` ..` +.@.` ` #. .` $.@.%.#.$. .$.$...$.$.` ",
"&.*.=.&.&.=.=.*.*.-.*.=.&.*.&.&.*.=.*.*.*.-.=.=.",
";.>.,.'.).'.!.;.;.).'.,.;.'.~.~.'.;.>.>.>.;.>.'.",
"{.].].^.{./.(./.(./._._./.^.]./.^.{.{.{.:.(.{.{.",
"<.[.[.<.<.[.<.}.|.[.<.[.<.<.<.<.<.<.<.<.|.<.<.}.",
"1.2.2.3.4.5.2.6.7.1.6.2.6.1.2.4.8.4.1.4.2.4.4.1.",
"9.9.9.9.9.0.9.a.9.a.9.0.9.9.9.9.9.0.9.9.9.9.9.a.",
"b.c.d.b.e.d.b.e.f.f.b.b.g.e.d.c.c.c.b.e.b.b.e.d.",
"h.h.i.j.h.h.j.k.l.h.h.h.k.j.j.h.k.h.h.k.k.h.h.h."};
