/* XPM */
static char * shade_inactive_xpm[] = {
"24 26 84 1",
" 	c #FDFEFF",
".	c #FDFDFF",
"+	c #FCFEFF",
"@	c #FCFDFF",
"#	c #FAFCFF",
"$	c #FAFDFF",
"%	c #F9FCFF",
"&	c #F7FBFF",
"*	c #F7FAFF",
"=	c #F8FBFF",
"-	c #F4FAFF",
";	c #F4F9FF",
">	c #F5FAFF",
",	c #F5F9FF",
"'	c #F2F8FF",
")	c #F1F8FF",
"!	c #F2F9FF",
"~	c #F1F9FF",
"{	c #EFF7FF",
"]	c #EEF7FF",
"^	c #EEF6FF",
"/	c #ECF6FF",
"(	c #EBF6FF",
"_	c #EBF5FF",
":	c #ECF5FF",
"<	c #E9F5FF",
"[	c #E9F4FF",
"}	c #E6F3FF",
"|	c #E7F3FF",
"1	c #E6F4FF",
"2	c #E4F2FF",
"3	c #E3F2FF",
"4	c #E3F1FF",
"5	c #787C80",
"6	c #E1F1FF",
"7	c #E0F1FF",
"8	c #E1F0FF",
"9	c #E0F0FF",
"0	c #DEEFFF",
"a	c #DEF0FF",
"b	c #DDEFFF",
"c	c #DBEEFF",
"d	c #DCEEFF",
"e	c #D8EDFF",
"f	c #D9EDFF",
"g	c #D9ECFF",
"h	c #D5ECFF",
"i	c #D6EBFF",
"j	c #D5EBFF",
"k	c #D6ECFF",
"l	c #D2EAFF",
"m	c #D3EAFF",
"n	c #D2EBFF",
"o	c #D0E9FF",
"p	c #D0E8FF",
"q	c #CFE9FF",
"r	c #CDE8FF",
"s	c #CDE7FF",
"t	c #CEE8FF",
"u	c #CAE6FF",
"v	c #CBE6FF",
"w	c #CAE7FF",
"x	c #C8E5FF",
"y	c #C7E5FF",
"z	c #C5E4FF",
"A	c #C5E3FF",
"B	c #C4E4FF",
"C	c #C4E3FF",
"D	c #C2E2FF",
"E	c #C2E3FF",
"F	c #C1E2FF",
"G	c #C1E3FF",
"H	c #BFE1FF",
"I	c #C0E1FF",
"J	c #BFE2FF",
"K	c #C0E2FF",
"L	c #BCE0FF",
"M	c #BCDFFF",
"N	c #BDE0FF",
"O	c #B9DEFF",
"P	c #BADFFF",
"Q	c #B9DFFF",
"R	c #BADEFF",
"S	c #E7EEF5",
" . +@+@@.+..@@..@+.. .  ",
"#$#######%####$#########",
"&*&&&&&&&&&&&&&&=&&*&&&&",
"-;>,;-----;--;,-;;;-;;,;",
"')'!'~~)!!')!'~))))))))'",
"{]]{{{{]{{]]{{{{{]^]{]]{",
"//(_:////(/(/:///://(/:/",
"<[<[[<[<<[[[[[<<[[<[<[[<",
"}|1}|}}}1}}}}}}}1}|}1}}}",
"232223233435523222233323",
"666667868855559868998869",
"000000000555555a00ab0000",
"ccccccdc55555555cccccccc",
"eeefeee555e55f555fegeefe",
"hijjjhihkhj55ijjhjihikjj",
"lmlmmmmlmml55mmlmmlmmmnm",
"ooopopooooo55ooqoopoooqo",
"rsssrrsrrtrrsrrsrrrrrsrr",
"uuvwvuwvuwuwwwuvuvuwwvuu",
"xxxyxxyyxxyyxyyxxxyyyyyx",
"zAABBBAzAAzzABzzBzzzzACz",
"DDEFEEGEEDDDEEEDEEEEEEDE",
"HIIHHHHJIHHHJJHHHHKHJHHH",
"LLLLLLLLMLLNLLLLLLLLLLNL",
"OPPOOOQRQPORQPQRPRQQPQQQ",
"SSSSSSSSSSSSSSSSSSSSSSSS"};
