/* XPM */
static char * stick_pressed_xpm[] = {
"24 26 142 2",
"  	c #D9DFE2",
". 	c #DADFE2",
"+ 	c #DADFE3",
"@ 	c #DADEE2",
"# 	c #D9DEE2",
"$ 	c #D7DDE0",
"% 	c #D8DDE1",
"& 	c #D7DCE1",
"* 	c #D8DDE0",
"= 	c #D7DDE1",
"- 	c #D5DBDF",
"; 	c #D4DBDF",
"> 	c #D5DADF",
", 	c #D3D9DE",
"' 	c #D3D9DD",
") 	c #D3D8DE",
"! 	c #D2D9DE",
"~ 	c #D2D9DD",
"{ 	c #D2D8DD",
"] 	c #D2D8DE",
"^ 	c #D3D8DD",
"/ 	c #D0D7DC",
"( 	c #D0D6DC",
"_ 	c #D0D7DB",
": 	c #D0D6DB",
"< 	c #CED4DA",
"[ 	c #CDD5DB",
"} 	c #CDD5DA",
"| 	c #CED5DA",
"1 	c #CED5DB",
"2 	c #CDD4DA",
"3 	c #CBD3D9",
"4 	c #CBD2D9",
"5 	c #CBD3D8",
"6 	c #CCD3D9",
"7 	c #CBD2D8",
"8 	c #C9D0D7",
"9 	c #C8D0D7",
"0 	c #C9D1D7",
"a 	c #C8D0D8",
"b 	c #C8D1D7",
"c 	c #C6CFD6",
"d 	c #C7CFD5",
"e 	c #C6CFD5",
"f 	c #C6CED6",
"g 	c #C7CFD6",
"h 	c #C6CED5",
"i 	c #C7CED5",
"j 	c #C4CDD4",
"k 	c #C4CCD4",
"l 	c #C4CCD3",
"m 	c #787C80",
"n 	c #C3CCD4",
"o 	c #C3CDD4",
"p 	c #C1CAD2",
"q 	c #C2CAD3",
"r 	c #C2CAD2",
"s 	c #C1CBD2",
"t 	c #C2CBD3",
"u 	c #C1CAD3",
"v 	c #BFC8D1",
"w 	c #BFC9D0",
"x 	c #BFC8D0",
"y 	c #BFC9D1",
"z 	c #BEC9D1",
"A 	c #BCC6CF",
"B 	c #BCC7CF",
"C 	c #BDC6CF",
"D 	c #BDC7CF",
"E 	c #BCC6D0",
"F 	c #BBC4CE",
"G 	c #BBC5CE",
"H 	c #BAC5CE",
"I 	c #BAC4CD",
"J 	c #BAC4CE",
"K 	c #B8C2CD",
"L 	c #B8C3CC",
"M 	c #B8C2CC",
"N 	c #B8C3CD",
"O 	c #B9C3CC",
"P 	c #B9C2CC",
"Q 	c #B5C0CB",
"R 	c #B6C1CB",
"S 	c #B6C0CA",
"T 	c #B6C0CB",
"U 	c #B5C1CB",
"V 	c #B6C1CA",
"W 	c #B3BFCA",
"X 	c #B3BEC9",
"Y 	c #B4BECA",
"Z 	c #B4BFCA",
"` 	c #B4BFC9",
" .	c #B3BFC9",
"..	c #B4BEC9",
"+.	c #B1BCC8",
"@.	c #B1BDC8",
"#.	c #B0BDC8",
"$.	c #B1BDC7",
"%.	c #B0BCC8",
"&.	c #B1BCC7",
"*.	c #AFBBC6",
"=.	c #AEBBC6",
"-.	c #AEBAC6",
";.	c #AEBAC5",
">.	c #AFBAC6",
",.	c #AFBAC5",
"'.	c #ACB8C4",
").	c #ACB8C5",
"!.	c #ACB9C4",
"~.	c #ACB9C5",
"{.	c #A9B6C3",
"].	c #AAB7C3",
"^.	c #AAB6C3",
"/.	c #AAB7C2",
"(.	c #A9B7C3",
"_.	c #A9B7C2",
":.	c #AAB6C2",
"<.	c #A9B6C2",
"[.	c #A7B4C1",
"}.	c #A7B5C1",
"|.	c #A7B4C2",
"1.	c #A7B5C2",
"2.	c #A5B2BF",
"3.	c #A4B2C0",
"4.	c #A5B2C0",
"5.	c #A5B3BF",
"6.	c #A4B2BF",
"7.	c #A5B3C0",
"8.	c #A2B1BE",
"9.	c #A2B0BE",
"0.	c #A3B0BE",
"a.	c #A3B1BE",
"b.	c #A0AEBC",
"c.	c #A0AFBC",
"d.	c #9FAEBC",
"e.	c #A0AEBD",
"f.	c #9FAEBD",
"g.	c #9FAFBC",
"h.	c #9DACBB",
"i.	c #9EACBB",
"j.	c #9DADBB",
"k.	c #9DACBA",
"  . .   .   . . . + . . + . @ . . . + . . . + # ",
"$ % $ & * $ $ % $ = % = = $ = $ * = * $ $ * = = ",
"- - - - - - - - - - ; - - > > - ; > ; - - - > - ",
", ' ) ! ' ~ ! { ] ^ ' ~ ~ ] , ! ! ' ' ! , ! ~ ^ ",
"/ ( _ / / / / / ( / : _ ( / / / _ / _ ( / / ( / ",
"< [ } | [ } < 1 | < 2 [ < 2 } | < | | | 1 2 | } ",
"3 3 4 3 4 5 5 5 3 6 7 7 5 3 4 4 4 4 6 5 5 5 7 3 ",
"8 9 9 9 8 8 0 8 8 8 8 0 a 8 8 b 8 b 8 8 0 8 8 b ",
"c d c e e c f e g g h e h f f h f h e f e h e i ",
"j j k k l j k j j j k m m n k k k k o k k k j j ",
"p q r s r p q p t m m m m m m r s r p u r p s u ",
"v w w x y x v w w m m x x m m v y v x w v y y z ",
"A B C A D A D A m m E C A B m m D A A B B C A C ",
"F G F F H G G I m m J J G G m m J H H F G H H H ",
"K L L K M N L O L m m M P m m L L N N L M M M K ",
"Q R S T R Q R Q U m m m m m m U S S T R V R U Q ",
"W X Y Z `  . . .X X  .m m ..`  . . .X Y X X X ..",
"+.@.@.@.#.$.+.@.+.$.@.@.@.@.$.+.%.&.+.+.@.&.+.#.",
"*.=.-.-.-.;.-.>.>.,.=.=.-.>.>.>.>.-.*.=.>.-.=.*.",
"'.).!.~.'.~.'.'.'.).'.'.'.'.~.'.'.).).).'.~.).'.",
"{.{.].^.].^.]./.^.].^.(.{.{._.:.^.{.^.{.(.^.<.<.",
"[.[.[.[.[.}.|.}.}.}.|.[.[.}.[.}.[.[.[.[.1.|.[.[.",
"2.3.3.4.2.4.5.3.2.4.6.7.2.4.3.2.2.4.4.2.3.4.4.4.",
"8.8.9.9.9.8.9.9.9.9.9.9.9.9.9.9.8.9.0.9.9.a.9.9.",
"b.b.c.c.b.b.b.d.e.e.b.f.g.b.b.f.d.d.d.d.b.d.b.e.",
"h.h.i.i.h.h.i.h.h.h.h.h.h.h.h.h.h.h.j.h.j.i.k.i."};
