/* XPM */
static char * stick_prelight_xpm[] = {
"24 26 130 2",
"  	c #F0F1F4",
". 	c #F0F1F3",
"+ 	c #EFF1F3",
"@ 	c #F0F2F3",
"# 	c #EEEFF1",
"$ 	c #EDEFF2",
"% 	c #EEEFF2",
"& 	c #EEF0F2",
"* 	c #EDF0F1",
"= 	c #EBEDF0",
"- 	c #EBEEF0",
"; 	c #ECEDF0",
"> 	c #ECEEF0",
", 	c #E9EBEE",
"' 	c #E9ECEF",
") 	c #E9EBEF",
"! 	c #E8ECEF",
"~ 	c #E9ECEE",
"{ 	c #E7EAED",
"] 	c #E6E9ED",
"^ 	c #E7E9EC",
"/ 	c #E7E9ED",
"( 	c #E6EAED",
"_ 	c #E7EAEC",
": 	c #E4E8EB",
"< 	c #E5E8EB",
"[ 	c #E4E8EC",
"} 	c #E4E7EB",
"| 	c #E4E7EC",
"1 	c #E5E7EC",
"2 	c #E2E5E9",
"3 	c #E2E5EA",
"4 	c #E3E6E9",
"5 	c #E2E6EA",
"6 	c #E3E5EA",
"7 	c #E2E6E9",
"8 	c #E3E5E9",
"9 	c #E3E6EA",
"0 	c #E0E4E8",
"a 	c #E0E3E8",
"b 	c #DFE4E8",
"c 	c #E0E4E9",
"d 	c #DFE4E9",
"e 	c #DEE2E6",
"f 	c #DEE1E7",
"g 	c #DEE2E7",
"h 	c #DDE1E7",
"i 	c #DEE1E6",
"j 	c #DDE1E6",
"k 	c #DDE2E7",
"l 	c #DDE2E6",
"m 	c #DBE0E4",
"n 	c #DBE0E5",
"o 	c #DCE0E5",
"p 	c #787C80",
"q 	c #D9DEE4",
"r 	c #D9DEE3",
"s 	c #D9DFE3",
"t 	c #D6DCE2",
"u 	c #D6DCE1",
"v 	c #D7DCE1",
"w 	c #D7DCE2",
"x 	c #D7DDE2",
"y 	c #D4DAE0",
"z 	c #D4DAE1",
"A 	c #D4DBE0",
"B 	c #D5DAE0",
"C 	c #D5DBE0",
"D 	c #D2D9DE",
"E 	c #D2D8DF",
"F 	c #D2D9DF",
"G 	c #D2D8DE",
"H 	c #D3D8DE",
"I 	c #D0D6DD",
"J 	c #D0D7DC",
"K 	c #CFD6DC",
"L 	c #CFD6DD",
"M 	c #CFD7DD",
"N 	c #D0D7DD",
"O 	c #CED5DB",
"P 	c #CDD4DC",
"Q 	c #CDD5DC",
"R 	c #CED4DB",
"S 	c #CDD4DB",
"T 	c #CDD5DB",
"U 	c #CED4DC",
"V 	c #CBD2DA",
"W 	c #CBD3DA",
"X 	c #CCD3DA",
"Y 	c #CBD3D9",
"Z 	c #CCD2DA",
"` 	c #CBD2D9",
" .	c #C9D1D8",
"..	c #C9D0D8",
"+.	c #C9D1D9",
"@.	c #C7CFD6",
"#.	c #C6CFD7",
"$.	c #C6CFD6",
"%.	c #C7CFD7",
"&.	c #C7CED6",
"*.	c #C7CED7",
"=.	c #C6CED7",
"-.	c #C6CED6",
";.	c #C4CDD5",
">.	c #C4CDD4",
",.	c #C5CDD5",
"'.	c #C5CCD5",
").	c #C4CCD5",
"!.	c #C2CBD3",
"~.	c #C2CBD4",
"{.	c #BFC9D1",
"].	c #C0C9D2",
"^.	c #BFC9D2",
"/.	c #C0C9D1",
"(.	c #C0CAD2",
"_.	c #BDC7D0",
":.	c #BEC7D0",
"<.	c #BDC7D1",
"[.	c #BDC8D1",
"}.	c #BDC8D0",
"|.	c #BBC5CE",
"1.	c #BBC5CF",
"2.	c #BCC5CF",
"3.	c #BBC6CE",
"4.	c #BBC6CF",
"5.	c #B9C3CD",
"6.	c #B9C4CD",
"7.	c #B8C4CD",
"8.	c #B8C3CD",
"9.	c #91969A",
"  . . + @ +   . @ . . . . . .   . . . .       . ",
"# $ % % # $ $ # & % * $ $ $ % $ % $ % % # % % % ",
"= - = ; = > = = ; = - > - = - = = = ; - - = ; ; ",
", , ' ) ) ) , , ! ~ ~ ) ) , ~ ) ' , ) ) , , ' ) ",
"{ ] ^ { { / / { / { { ( ^ { ^ _ / / _ ] / _ / / ",
": < [ } : < } | 1 [ : [ } } : } : | < } : : : : ",
"2 3 4 5 3 6 5 7 7 5 8 3 2 5 5 3 5 7 2 3 7 7 3 9 ",
"0 a 0 0 0 a 0 0 0 0 0 0 0 0 0 b 0 0 c 0 0 0 d 0 ",
"e f g e h i j k l j h k j e e g k e g e j j l l ",
"m n n o n o m o o n n p p n n n n n o n n n m m ",
"q q r r r r r q q p p p p p p r r r r q r r s q ",
"t t t u v t w v w p p w t p p w x t w t w v w w ",
"y y y y z A y B p p z B y y p p B y y y C y y y ",
"D E F D E E E G p p H E G G p p G E G E G G E G ",
"I J I I K L M I I p p N N p p N I M I I I N I N ",
"O P O Q R S O T O p p p p p p O R T S T T U T O ",
"V W X X Y W V V V W Y p p Z ` W W W X W W X W W ",
" ..... . ..... . . . .+... . ... .+. ... . . . .",
"@.#.@.$.@.%.&.#.&.%.*.%.=.@.$.*.#.@.$.-.%.@.*.*.",
";.;.>.;.,.;.;.;.;.;.;.,.'.).,.;.,.;.,.;.,.'.).;.",
"!.!.!.!.!.~.!.!.~.~.!.~.!.!.~.~.!.!.~.!.!.!.~.~.",
"{.].].^.^.].]./.^.]./.].].{.].(./.].].].].].].{.",
"_.:._._.:._._.<._.:.<.:._.:._._.[.:._.}.}.:._.<.",
"|.1.2.3.4.1.2.1.4.1.|.3.1.2.1.1.4.1.1.|.4.3.|.1.",
"5.6.7.6.5.7.7.5.6.6.5.5.5.6.5.6.5.6.5.5.6.8.6.6.",
"9.9.9.9.9.9.9.9.9.9.9.9.9.9.9.9.9.9.9.9.9.9.9.9."};
