/* XPM */
static char * stick_inactive_xpm[] = {
"24 26 85 1",
" 	c #FDFDFF",
".	c #FCFDFF",
"+	c #FCFEFF",
"@	c #FDFEFF",
"#	c #FAFCFF",
"$	c #F9FCFF",
"%	c #F9FDFF",
"&	c #F7FBFF",
"*	c #F8FAFF",
"=	c #F7FAFF",
"-	c #F4F9FF",
";	c #F4FAFF",
">	c #F5FAFF",
",	c #F5F9FF",
"'	c #F1F9FF",
")	c #F2F8FF",
"!	c #F1F8FF",
"~	c #F2F9FF",
"{	c #EFF7FF",
"]	c #EEF7FF",
"^	c #EFF6FF",
"/	c #ECF6FF",
"(	c #ECF5FF",
"_	c #EBF6FF",
":	c #EBF5FF",
"<	c #E9F5FF",
"[	c #E9F4FF",
"}	c #EAF4FF",
"|	c #E6F3FF",
"1	c #E6F4FF",
"2	c #E7F3FF",
"3	c #E4F1FF",
"4	c #E3F2FF",
"5	c #E4F2FF",
"6	c #E3F1FF",
"7	c #787C80",
"8	c #E1F1FF",
"9	c #E1F0FF",
"0	c #E0F0FF",
"a	c #E0F1FF",
"b	c #DEEFFF",
"c	c #DEF0FF",
"d	c #DDF0FF",
"e	c #DDEFFF",
"f	c #DBEEFF",
"g	c #DCEEFF",
"h	c #D8ECFF",
"i	c #D9ECFF",
"j	c #D8EDFF",
"k	c #D9EDFF",
"l	c #D5EBFF",
"m	c #D5ECFF",
"n	c #D6ECFF",
"o	c #D6EBFF",
"p	c #D2EBFF",
"q	c #D3EBFF",
"r	c #D3EAFF",
"s	c #D2EAFF",
"t	c #D0E9FF",
"u	c #CFE9FF",
"v	c #D0E8FF",
"w	c #CDE7FF",
"x	c #CDE8FF",
"y	c #CAE6FF",
"z	c #CBE6FF",
"A	c #CBE7FF",
"B	c #CAE7FF",
"C	c #C7E5FF",
"D	c #C8E5FF",
"E	c #C6E4FF",
"F	c #C5E4FF",
"G	c #C3E3FF",
"H	c #C3E2FF",
"I	c #C2E3FF",
"J	c #C2E2FF",
"K	c #C0E2FF",
"L	c #C0E1FF",
"M	c #BFE1FF",
"N	c #BFE2FF",
"O	c #BDE0FF",
"P	c #BDE1FF",
"Q	c #BBDFFF",
"R	c #BADFFF",
"S	c #BADEFF",
"T	c #E7EEF5",
" .+...+..+  @+. .@@.. ..",
"#$######$#####$######%##",
"&&&&&&*&&&&==&&&&&&&&&=&",
"--;;;--;;---;-->-,;,---;",
"'))!)!'~!!!!))!!!!)!')!!",
"{]{{{]{{]{^]{{{]]{]{{{{{",
"//(/_/_//(/:://(//_//_(/",
"<[[<[[[[[<<<[<[[[[<}<<[[",
"||||||1||2|1|2||212||||2",
"343454456447744445546543",
"8889098a07777779a998a899",
"bbbcbbdbc77cb77bcbbbebbb",
"ffffffff77ffgf77ffffffff",
"hiihhijj77jjjh77jkjhjhjh",
"llmnmomlm77ll77ooollnlln",
"pqrssrrsp777777rsrqrrssr",
"tuttvttuttv77utvuttttttt",
"wwxxwwxxwwxwxxwxxxxwwwxw",
"yzyyyyAByyyByyyzAzzByABy",
"CCCCCCDDCCDCCDDCDCDDDCCC",
"EFFEEFEFFEFFEFEFFEEFEEFF",
"GGGGHIHIGHHIGJGIJGIJGGIG",
"KLLLLKLKKLKMNKLLKLKKLKKL",
"OOOOOOOOOOOOOOOOOOOPOOOO",
"QRRRRRRRSQQRQRRRRQQRRRRR",
"TTTTTTTTTTTTTTTTTTTTTTTT"};
