/* XPM */
static char * stick_active_xpm[] = {
"24 26 131 2",
"  	c #F0F1F3",
". 	c #F0F1F4",
"+ 	c #EFF1F3",
"@ 	c #EDEFF2",
"# 	c #EEEFF1",
"$ 	c #EEF0F2",
"% 	c #EEEFF2",
"& 	c #EDEFF1",
"* 	c #EBEDF0",
"= 	c #EBEEF0",
"- 	c #ECEDF0",
"; 	c #ECEEF1",
"> 	c #ECEEF0",
", 	c #E9EBEE",
"' 	c #E9EBEF",
") 	c #E9ECEE",
"! 	c #E9ECEF",
"~ 	c #E7EAED",
"{ 	c #E6E9ED",
"] 	c #E6EAED",
"^ 	c #E7E9ED",
"/ 	c #E7EAEC",
"( 	c #E7E9EC",
"_ 	c #E5E8EB",
": 	c #E5E7EB",
"< 	c #E5E7EC",
"[ 	c #E4E8EB",
"} 	c #E4E7EC",
"| 	c #E4E7EB",
"1 	c #E3E6EA",
"2 	c #E2E6EA",
"3 	c #E2E5EA",
"4 	c #E2E5E9",
"5 	c #E2E6E9",
"6 	c #DFE4E8",
"7 	c #E0E3E8",
"8 	c #E0E4E8",
"9 	c #DDE2E6",
"0 	c #DEE1E6",
"a 	c #DEE2E7",
"b 	c #DEE2E6",
"c 	c #DDE2E7",
"d 	c #DDE1E7",
"e 	c #DBE0E5",
"f 	c #DCE0E5",
"g 	c #DBE0E4",
"h 	c #1E1F20",
"i 	c #DCE0E4",
"j 	c #DBDFE5",
"k 	c #D9DEE3",
"l 	c #D8DEE4",
"m 	c #D9DEE4",
"n 	c #D8DEE3",
"o 	c #D6DCE2",
"p 	c #D7DCE2",
"q 	c #D7DDE2",
"r 	c #D7DCE1",
"s 	c #D6DDE2",
"t 	c #D5DBE1",
"u 	c #D5DAE0",
"v 	c #D4DAE0",
"w 	c #D5DBE0",
"x 	c #D4DAE1",
"y 	c #D2D9DE",
"z 	c #D2D8DF",
"A 	c #D2D8DE",
"B 	c #D2D9DF",
"C 	c #D3D8DF",
"D 	c #D0D7DD",
"E 	c #D0D6DD",
"F 	c #D0D7DC",
"G 	c #CFD6DD",
"H 	c #CDD4DC",
"I 	c #CDD5DB",
"J 	c #CDD4DB",
"K 	c #CED5DB",
"L 	c #CDD5DC",
"M 	c #CED4DB",
"N 	c #CED5DC",
"O 	c #CBD2D9",
"P 	c #CBD3DA",
"Q 	c #CBD3D9",
"R 	c #CBD2DA",
"S 	c #CCD3DA",
"T 	c #CCD2D9",
"U 	c #C9D1D8",
"V 	c #C9D0D8",
"W 	c #C8D1D8",
"X 	c #C9D1D9",
"Y 	c #C7CFD7",
"Z 	c #C7CED6",
"` 	c #C7CED7",
" .	c #C6CFD7",
"..	c #C7CFD6",
"+.	c #C6CFD6",
"@.	c #C6CED6",
"#.	c #C4CDD5",
"$.	c #C5CDD5",
"%.	c #C4CCD5",
"&.	c #C5CDD4",
"*.	c #C5CCD5",
"=.	c #C3CBD4",
"-.	c #C3CCD4",
";.	c #C2CBD3",
">.	c #C2CBD4",
",.	c #C2CCD3",
"'.	c #C2CCD4",
").	c #C0C9D2",
"!.	c #C1C9D2",
"~.	c #C1CAD2",
"{.	c #C0CAD2",
"].	c #C0CAD3",
"^.	c #C1C9D3",
"/.	c #BEC8D0",
"(.	c #BEC8D1",
"_.	c #BEC7D1",
":.	c #BEC7D0",
"<.	c #BFC7D0",
"[.	c #BCC6CF",
"}.	c #BBC6CF",
"|.	c #BCC5CF",
"1.	c #BBC5CF",
"2.	c #BBC6CE",
"3.	c #B9C4CD",
"4.	c #B9C3CE",
"5.	c #BAC4CD",
"6.	c #B9C4CE",
"7.	c #BAC4CE",
"8.	c #BAC3CD",
"9.	c #B9C3CD",
"0.	c #91969A",
"      .   . .   . +                 +           ",
"@ # $ @ $ @ # % % # & % & % % % # % # % & @ @ & ",
"* = - - - ; * = > * * = * * * = * * * * = * * * ",
", , ' ) ! ! , , ) , ! ' , , ' , , ' ' , ' ) ' , ",
"~ { { { ] ^ ^ ^ ] ^ { { ] ^ ^ ] ^ ~ ^ ^ ~ / ^ ( ",
"_ _ : < [ : : : } [ } : _ | [ < [ [ | _ : : [ [ ",
"1 2 2 3 4 5 3 2 3 2 2 3 2 2 1 3 2 3 5 4 2 2 4 3 ",
"6 7 7 8 8 8 8 8 8 7 6 8 7 8 8 7 8 8 8 8 7 8 8 8 ",
"9 0 0 9 a b 9 b c c a c a c b c b d d c c c c a ",
"e e e e e e e e e f g h h e f e e e i e e e j e ",
"k l k m k k n m k h h h h h h m k k k k m m k m ",
"o p p o o q o o p h h o r h h o p s q r r o r r ",
"t u v w v v v u h h v v v v h h t u x v v u w v ",
"y z z A z z A y h h z A z B h h z y A z y z C B ",
"D E D D D E F E E h h D G h h F E D E E E E D E ",
"H H I J K I H L J h h h h h h I J K J K J M I N ",
"O P Q R P S S R R O P h h O S P P T T P P S S R ",
"U U U V U V W U U U U U V V V U U U U X V U U U ",
"Y Y Y Y Z Y `  .` ....+.Z Y Y Y ....@... ...Y Y ",
"#.$.#.%.#.%.#.$.%.#.#.#.#.$.#.#.&.#.*.#.#.$.*.#.",
"=.=.-.=.-.=.=.;.=.-.=.>.,.'.>.-.-.;.>.>.>.'.,.-.",
").!.).~.).{.).{.).{.~.).).].^.{.~.).!.!.{.{.).~.",
"/.(./._._./././.(.:./.(._./._._.(.<./._.(._./.(.",
"[.[.}.[.[.[.[.|.[.[.1.[.}.[.2.[.[.[.[.|.}.[.[.|.",
"3.3.4.5.3.3.5.6.3.3.7.3.3.5.5.3.7.8.4.9.4.9.5.7.",
"0.0.0.0.0.0.0.0.0.0.0.0.0.0.0.0.0.0.0.0.0.0.0.0."};
