/* XPM */
static char * stick_toggled_active_xpm[] = {
"24 26 139 2",
"  	c #D9DFE2",
". 	c #D9DFE3",
"+ 	c #D8DFE2",
"@ 	c #D8DFE3",
"# 	c #D7DDE0",
"$ 	c #D6DDE1",
"% 	c #D6DDE0",
"& 	c #D7DDE1",
"* 	c #D4DBDF",
"= 	c #D4DADF",
"- 	c #D4DBE0",
"; 	c #D2D9DE",
"> 	c #D1D9DE",
", 	c #D2D9DD",
"' 	c #D1D9DD",
") 	c #D2D8DE",
"! 	c #D1D8DE",
"~ 	c #CFD7DC",
"{ 	c #CFD7DB",
"] 	c #D0D7DC",
"^ 	c #CFD6DB",
"/ 	c #CFD6DC",
"( 	c #D0D7DB",
"_ 	c #CDD5DA",
": 	c #CCD5DA",
"< 	c #CCD4DA",
"[ 	c #CCD4DB",
"} 	c #CDD5DB",
"| 	c #CDD4DA",
"1 	c #CBD3D9",
"2 	c #CAD3D9",
"3 	c #CBD3D8",
"4 	c #CAD3D8",
"5 	c #CAD2D9",
"6 	c #CAD2D8",
"7 	c #CBD2D8",
"8 	c #C8D1D7",
"9 	c #C8D0D7",
"0 	c #C8D1D8",
"a 	c #C7D1D7",
"b 	c #C6CFD5",
"c 	c #C5CFD5",
"d 	c #C5CFD6",
"e 	c #C5CED5",
"f 	c #C6CFD6",
"g 	c #C3CCD4",
"h 	c #C3CDD4",
"i 	c #C3CDD3",
"j 	c #C4CDD4",
"k 	c #1E1F20",
"l 	c #C1CBD2",
"m 	c #C0CBD2",
"n 	c #C1CBD3",
"o 	c #C1CAD2",
"p 	c #C0CAD2",
"q 	c #BEC8D0",
"r 	c #BEC8D1",
"s 	c #BFC9D1",
"t 	c #BFC9D0",
"u 	c #BEC9D0",
"v 	c #BEC9D1",
"w 	c #BFC8D0",
"x 	c #BCC7D0",
"y 	c #BCC7CF",
"z 	c #BCC6CF",
"A 	c #BAC4CE",
"B 	c #B9C5CE",
"C 	c #BAC5CE",
"D 	c #B9C5CD",
"E 	c #BAC5CD",
"F 	c #B9C4CE",
"G 	c #BAC4CD",
"H 	c #B9C4CD",
"I 	c #B7C3CC",
"J 	c #B8C3CC",
"K 	c #B7C2CC",
"L 	c #B7C3CB",
"M 	c #B5C0CB",
"N 	c #B4C1CB",
"O 	c #B5C1CB",
"P 	c #B5C1CA",
"Q 	c #B4C1CA",
"R 	c #B4C0CB",
"S 	c #B4C0CA",
"T 	c #B5C0CA",
"U 	c #B2BEC8",
"V 	c #B2BFC9",
"W 	c #B2BEC9",
"X 	c #B2BFC8",
"Y 	c #B3BFC8",
"Z 	c #B3BFC9",
"` 	c #B0BDC7",
" .	c #AFBDC7",
"..	c #B0BCC8",
"+.	c #AFBCC7",
"@.	c #B0BCC7",
"#.	c #AFBDC8",
"$.	c #ADBBC6",
"%.	c #AEBAC6",
"&.	c #AEBBC5",
"*.	c #ADBBC5",
"=.	c #AEBAC5",
"-.	c #AEBBC6",
";.	c #ADBAC6",
">.	c #ADBAC5",
",.	c #ABB8C4",
"'.	c #ABB8C3",
").	c #ABB9C4",
"!.	c #ABB9C3",
"~.	c #A9B7C3",
"{.	c #A8B6C3",
"].	c #A9B7C2",
"^.	c #A8B7C2",
"/.	c #A9B6C2",
"(.	c #A9B6C3",
"_.	c #A8B7C3",
":.	c #A8B6C2",
"<.	c #A6B4C1",
"[.	c #A7B4C1",
"}.	c #A6B5C1",
"|.	c #A6B5C0",
"1.	c #A7B5C1",
"2.	c #A7B4C0",
"3.	c #A4B2BF",
"4.	c #A3B3BF",
"5.	c #A4B3BF",
"6.	c #A4B2C0",
"7.	c #A4B3C0",
"8.	c #A1B1BE",
"9.	c #A2B0BE",
"0.	c #A1B1BD",
"a.	c #A2B1BD",
"b.	c #A1B0BE",
"c.	c #A2B0BD",
"d.	c #A1B0BD",
"e.	c #A2B1BE",
"f.	c #9FAEBC",
"g.	c #9FAFBC",
"h.	c #91969A",
"    . +   . +   +   . + + @ . + + @   .       @ ",
"# $ $ % $ % $ & # % # $ % % % $ % # & # # % & & ",
"* * * * * * * = * * - * * * = * * * * * * * * * ",
"; > ; , ' ' ; ' , > ; > ' ) ! ; > ; ' ; ' ' > ' ",
"~ { { ] ~ ~ ~ ] { ] ~ ~ ^ ~ / { ( ~ ~ ~ ~ ~ ] ] ",
"_ : _ _ < _ : _ _ [ _ _ } | _ _ _ : _ : _ | : < ",
"1 1 2 3 2 4 2 2 2 4 5 2 6 2 2 2 4 3 7 3 4 4 2 2 ",
"8 9 8 8 0 8 9 8 8 8 9 a 8 9 8 8 8 9 9 8 8 8 a 8 ",
"b c d c c b b c e f b b c d d d f b c c f f f b ",
"g g h i h i h i h h j k k g j i g h h j h g h i ",
"l m l n l l l l o k k k k k k p l m l o m l l m ",
"q r s r t u v r v k k k k k k v v r w r v s s u ",
"x y y y y y x x k k k k k k k k y y y y z y y x ",
"A B B C D E C F k k k k k k k k C G B E C D C H ",
"I I I I I J I I I k k k k k k I K L I I I I I I ",
"M N O M P Q P R P k k k k k k Q M S Q O T P T O ",
"U V V W V X X Y Z Z Z k k Z U Y X W Z Z V V V W ",
"`  ...` ....` ` +.` @.` ` ` ` #. .` @.@.@.@...@.",
"$.%.$.&.$.$.$.$.*.=.%.$.$.-.&.$.;.=.&.=.=.>.%.$.",
",.'.,.).).).).).,.).,.,.).,.).,.,.).,.!.).,.,.).",
"~.{.].].~.^././.~.(._.]./.~.(./.:.^.~.^.]._././.",
"<.[.<.}.|.1.2.|.2.}.[.}.<.<.|.}.<.}.}.<.}.}.}.}.",
"3.3.3.4.5.5.3.5.4.5.6.5.5.4.3.5.5.6.7.7.5.7.3.4.",
"8.9.8.8.0.8.a.b.c.b.b.d.9.8.e.8.b.9.0.9.8.e.c.c.",
"f.g.f.g.f.g.f.f.f.f.f.f.f.g.f.g.g.f.f.f.f.f.g.g.",
"h.h.h.h.h.h.h.h.h.h.h.h.h.h.h.h.h.h.h.h.h.h.h.h."};
