/* XPM */
static char * stick_toggled_prelight_xpm[] = {
"24 26 135 2",
"  	c #F0F2F3",
". 	c #EFF1F3",
"+ 	c #F0F1F3",
"@ 	c #F0F1F4",
"# 	c #EFF1F4",
"$ 	c #EDEFF2",
"% 	c #EEF0F1",
"& 	c #EEF0F2",
"* 	c #EEEFF1",
"= 	c #EEEFF2",
"- 	c #EDF0F1",
"; 	c #EDF0F2",
"> 	c #EDEFF1",
", 	c #EBEDF0",
"' 	c #ECEEF0",
") 	c #EBEEF0",
"! 	c #ECEDF0",
"~ 	c #EBEDF1",
"{ 	c #E9ECEE",
"] 	c #E9EBEF",
"^ 	c #E9ECEF",
"/ 	c #E9EBEE",
"( 	c #E6E9ED",
"_ 	c #E7E9ED",
": 	c #E7EAED",
"< 	c #E6EAED",
"[ 	c #E5E8EB",
"} 	c #E4E7EB",
"| 	c #E4E8EB",
"1 	c #E5E8EC",
"2 	c #E4E7EC",
"3 	c #E5E7EC",
"4 	c #E4E8EC",
"5 	c #E5E7EB",
"6 	c #E2E6EA",
"7 	c #E2E5E9",
"8 	c #E2E6E9",
"9 	c #E3E6EA",
"0 	c #E2E5EA",
"a 	c #E0E4E8",
"b 	c #E0E3E9",
"c 	c #DFE4E8",
"d 	c #E0E3E8",
"e 	c #E0E4E9",
"f 	c #DFE4E9",
"g 	c #DFE3E8",
"h 	c #DEE2E6",
"i 	c #DEE1E7",
"j 	c #DDE1E7",
"k 	c #DDE2E7",
"l 	c #DEE2E7",
"m 	c #DDE2E6",
"n 	c #DBE0E5",
"o 	c #DCE0E5",
"p 	c #DBDFE5",
"q 	c #DBE0E6",
"r 	c #787C80",
"s 	c #D9DEE3",
"t 	c #D9DEE4",
"u 	c #D9DFE3",
"v 	c #D8DEE3",
"w 	c #D7DCE2",
"x 	c #D6DDE3",
"y 	c #D6DCE2",
"z 	c #D7DDE2",
"A 	c #D7DCE3",
"B 	c #D4DBE0",
"C 	c #D5DBE1",
"D 	c #D4DAE0",
"E 	c #D4DAE1",
"F 	c #D5DAE0",
"G 	c #D5DAE1",
"H 	c #D4DBE1",
"I 	c #D2D8DF",
"J 	c #D2D9DF",
"K 	c #D0D6DD",
"L 	c #CFD7DE",
"M 	c #D0D7DE",
"N 	c #D0D6DE",
"O 	c #CFD6DE",
"P 	c #CFD6DD",
"Q 	c #D0D7DD",
"R 	c #CDD4DC",
"S 	c #CED4DC",
"T 	c #CDD5DC",
"U 	c #CED5DC",
"V 	c #CED4DB",
"W 	c #CCD3DB",
"X 	c #CBD3DA",
"Y 	c #CBD2DB",
"Z 	c #CBD3DB",
"` 	c #CBD2DA",
" .	c #CCD3DA",
"..	c #C9D1D9",
"+.	c #C9D0D9",
"@.	c #C9D1D8",
"#.	c #C9D0D8",
"$.	c #C8D1D8",
"%.	c #C7CFD7",
"&.	c #C6CFD7",
"*.	c #C6CFD8",
"=.	c #C7CFD8",
"-.	c #C6CED7",
";.	c #C7CED7",
">.	c #C5CCD6",
",.	c #C4CDD6",
"'.	c #C5CDD5",
").	c #C4CCD6",
"!.	c #C4CDD5",
"~.	c #C5CDD6",
"{.	c #C2CBD4",
"].	c #C2CBD5",
"^.	c #C3CBD4",
"/.	c #BFC9D3",
"(.	c #C0C9D3",
"_.	c #C0C9D2",
":.	c #C0CAD3",
"<.	c #BFC9D2",
"[.	c #BFCAD2",
"}.	c #BFCAD3",
"|.	c #BEC7D1",
"1.	c #BEC7D2",
"2.	c #BDC7D1",
"3.	c #BEC8D1",
"4.	c #BDC8D1",
"5.	c #BBC6D0",
"6.	c #BBC5CF",
"7.	c #BBC5D0",
"8.	c #BCC5CF",
"9.	c #BBC6CF",
"0.	c #B9C3CE",
"a.	c #B9C4CE",
"b.	c #B8C3CD",
"c.	c #B8C4CE",
"d.	c #91969A",
"  . + + @ + + + + + + + + # +   . + + @ @ @ + . ",
"$ % & * = * = $ * - $ ; = = * * > = = > = > $ $ ",
", , ' ) ' , , ) ! ! , ) , , ) , , ) , , , , ~ ' ",
"{ { ] { { ] ^ ] ] / ^ / / ] ] / ] / ] / ] / ^ / ",
"( _ _ ( : _ _ < : : : : _ ( _ < : ( ( ( _ _ ( : ",
"[ } | } 1 | [ } 2 3 } | 3 1 4 | 5 [ [ | } | | 1 ",
"6 7 6 8 6 6 6 6 9 9 6 6 6 6 6 0 6 6 0 6 0 8 9 6 ",
"a b c a d a c e a f g a e d d c a a f e g c a f ",
"h h i j k i l l l l k l i m l l m k i i i l l k ",
"n n n n n o n n n p q r r q n q n n o p n q n o ",
"s s t t u t t s s r r r r r r t t s t t v s s s ",
"w x y w w w w w w r r r r r r w w w w w w z A w ",
"B C D E F G E D r r r r r r r r F E D H E H D F ",
"I J I I I I I I r r r r r r r r I I I I J I J I ",
"K L K K M N O N P r r r r r r K M Q K L N P K N ",
"R S T T T U U R T r r r r r r T V R V U S T U T ",
"W X W X Y X X Y X X X r r W Z Z ` X X ` X  .Z ` ",
"..+.+.@.@.+.....+.+...#.@.@...+...#.$.+...#.....",
"%.&.%.%.&.%.%.%.%.%.*.%.=.-.;.=.=.%.%.%.=.%.-.%.",
">.,.'.).!.!.,.~.,.,.!.,.,.~.~.,.,.,.,.'.,.,.,.!.",
"{.{.{.{.].].{.{.{.{.{.].{.{.{.{.{.{.{.^.{.{.{.{.",
"/.(._.(.:._.<./.<.(.(._._././.[._.(.}.<./.(.:.:.",
"|.1.2.3.2.2.3.2.|.2.2.|.2.|.2.3.2.2.|.4.2.|.2.3.",
"5.5.6.7.7.7.7.6.6.6.6.7.8.5.9.8.7.7.7.6.7.6.9.8.",
"0.0.0.a.0.0.b.a.0.0.0.0.c.a.0.0.0.0.c.a.0.0.c.0.",
"d.d.d.d.d.d.d.d.d.d.d.d.d.d.d.d.d.d.d.d.d.d.d.d."};
