/* XPM */
static char * stick_toggled_inactive_xpm[] = {
"24 26 132 2",
"  	c #D7DEE2",
". 	c #D6DFE3",
"+ 	c #D7DEE3",
"@ 	c #D6DEE2",
"# 	c #D7DFE2",
"$ 	c #D5DCE1",
"% 	c #D4DCE0",
"& 	c #D5DCE0",
"* 	c #D5DDE1",
"= 	c #D4DCE1",
"- 	c #D4DDE1",
"; 	c #D3DADF",
"> 	c #D2DADF",
", 	c #D2DBE0",
"' 	c #D2DAE0",
") 	c #D3DBDF",
"! 	c #D3DAE0",
"~ 	c #D0D9DE",
"{ 	c #D1D8DD",
"] 	c #D0D9DD",
"^ 	c #D0D8DE",
"/ 	c #D1D8DE",
"( 	c #D1D9DE",
"_ 	c #D0D8DD",
": 	c #D1D9DD",
"< 	c #CED7DC",
"[ 	c #CED6DC",
"} 	c #CED6DD",
"| 	c #CED7DD",
"1 	c #CBD4DB",
"2 	c #CCD5DB",
"3 	c #CCD4DA",
"4 	c #CCD5DA",
"5 	c #CCD4DB",
"6 	c #CBD4DA",
"7 	c #CAD2D9",
"8 	c #CAD3D9",
"9 	c #C9D3D9",
"0 	c #C9D2D9",
"a 	c #CAD2DA",
"b 	c #C9D3DA",
"c 	c #CAD3DA",
"d 	c #C7D1D8",
"e 	c #C8D0D8",
"f 	c #C7D1D7",
"g 	c #C8D1D8",
"h 	c #C7D0D7",
"i 	c #C8D1D7",
"j 	c #C8D0D7",
"k 	c #C6CFD6",
"l 	c #C5CFD6",
"m 	c #C5CED6",
"n 	c #C6CFD7",
"o 	c #C3CCD5",
"p 	c #C3CDD4",
"q 	c #C3CDD5",
"r 	c #787C80",
"s 	c #C1CBD3",
"t 	c #C0CBD3",
"u 	c #BECAD2",
"v 	c #BEC9D1",
"w 	c #BECAD1",
"x 	c #BFC9D2",
"y 	c #BEC9D2",
"z 	c #BFC9D1",
"A 	c #BDC8D0",
"B 	c #BCC7D0",
"C 	c #BCC7D1",
"D 	c #BDC7D0",
"E 	c #BBC6CF",
"F 	c #BBC5CF",
"G 	c #BAC6CF",
"H 	c #BAC5CE",
"I 	c #B9C4CD",
"J 	c #B8C4CE",
"K 	c #B8C4CD",
"L 	c #B9C3CE",
"M 	c #B9C4CE",
"N 	c #B9C3CD",
"O 	c #B7C2CC",
"P 	c #B6C2CC",
"Q 	c #B6C2CB",
"R 	c #B4C0CA",
"S 	c #B4C0CB",
"T 	c #B4C1CA",
"U 	c #B2BEC9",
"V 	c #B2BEC8",
"W 	c #B1BEC9",
"X 	c #B2BFC8",
"Y 	c #B0BCC8",
"Z 	c #AFBDC7",
"` 	c #AFBCC7",
" .	c #B0BCC7",
"..	c #AFBCC8",
"+.	c #B0BDC7",
"@.	c #B0BDC8",
"#.	c #ADBBC6",
"$.	c #ADBAC6",
"%.	c #AEBAC6",
"&.	c #AEBAC5",
"*.	c #AEBBC6",
"=.	c #ADBAC5",
"-.	c #ABB8C4",
";.	c #ACB8C4",
">.	c #ABB9C4",
",.	c #ABB8C5",
"'.	c #ACB9C4",
").	c #ACB8C5",
"!.	c #A9B7C3",
"~.	c #A9B6C2",
"{.	c #A9B7C2",
"].	c #A9B6C3",
"^.	c #A7B4C1",
"/.	c #A7B5C1",
"(.	c #A6B5C1",
"_.	c #A7B5C2",
":.	c #A6B5C2",
"<.	c #A6B4C2",
"[.	c #A6B4C1",
"}.	c #A7B4C2",
"|.	c #A4B3C0",
"1.	c #A5B3C0",
"2.	c #A5B2C0",
"3.	c #A4B2C0",
"4.	c #A4B2BF",
"5.	c #A4B3BF",
"6.	c #A2B1BE",
"7.	c #A2B1BF",
"8.	c #A2B0BE",
"9.	c #A3B1BF",
"0.	c #A3B1BE",
"a.	c #E7EEF5",
"    . +   + +   @           @   + # +       .   ",
"$ % $ $ & $ & $ * = $ & % - * = & $ $ = = $ $ $ ",
"; > > , > ' > ' ) > ; ) ' ! > ; ; ; ; > > > ; > ",
"~ { ] ~ ^ ~ / ( ^ ~ ( _ ~ ^ ^ ] { ~ _ : / ^ ^ ] ",
"< < [ [ < [ } [ < [ } < [ [ [ [ } | [ < | [ [ [ ",
"1 2 2 2 2 2 3 4 5 3 5 2 2 4 6 5 5 3 2 2 4 2 5 2 ",
"7 7 8 8 9 0 a a 8 8 8 8 7 9 0 b 8 8 9 c c 9 b 9 ",
"d e f g d h d d g i d e d j f g e i g g g g e j ",
"k l l k k l l l l m l m k l l l l k k l n l l k ",
"o o p q q p q q q p p r r q q p q q q q q p p q ",
"s s s s s s s s s r r r r r r s s s s s s s s t ",
"u v w x v y x x x r r r r r r u x x z z z y x x ",
"A B B B A B B C r r r r r r r r D A B D B B B B ",
"E F G G E E F H r r r r r r r r E E G G F G F F ",
"I J J K J J K K J r r r r r r K I J L I M J K N ",
"O O P Q Q P P P O r r r r r r P O P P P O P O P ",
"R S R R S S T S R R R r r R R R R T S R S S S S ",
"U V U U U U W U U U V V U X V U U U U X U U U W ",
"Y Z `  .` .. ... .Y ..Y +. .@.Y  .Y @. .@.` +...",
"#.$.%.#.$.$.&.$.#.$.%.$.*.%.%.$.%.=.%.#.#.#.&.%.",
"-.-.;.>.,.,.-.;.-.>.-.-.-.-.;.,.'.>.-.-.>.>.-.).",
"!.!.~.{.~.].~.!.{.].!.!.!.].].].~.!.].!.].~.!.{.",
"^.^./.(./._./._.:././.<.[.^.^./.(./.:.}./.(.<./.",
"|.|.1.|.|.|.|.2.|.3.1.1.4.5.|.1.|.|.2.1.1.1.5.1.",
"6.7.8.6.6.9.6.7.6.8.6.8.6.6.0.9.6.6.6.6.6.7.6.8.",
"a.a.a.a.a.a.a.a.a.a.a.a.a.a.a.a.a.a.a.a.a.a.a.a."};
