/* XPM */
static char * title_5_active_xpm[] = {
"2 26 44 1",
" 	c #F1F2F4",
".	c #EEF0F2",
"+	c #EDF1F2",
"@	c #ECEFF0",
"#	c #EBEEF0",
"$	c #E9ECEF",
"%	c #E9EDEF",
"&	c #E7EAED",
"*	c #E7EBED",
"=	c #E4E8EC",
"-	c #E2E7EA",
";	c #DFE5E8",
">	c #E0E4E8",
",	c #DDE2E6",
"'	c #DBE0E5",
")	c #DBE1E5",
"!	c #D8DDE3",
"~	c #D8DEE3",
"{	c #D6DCE1",
"]	c #D5DCE1",
"^	c #D3DAE0",
"/	c #D3DADF",
"(	c #D1D8DE",
"_	c #D0D7DE",
":	c #CED5DD",
"<	c #CED6DC",
"[	c #CCD4DB",
"}	c #C9D1D9",
"|	c #C9D2D9",
"1	c #C7D0D7",
"2	c #C5CDD6",
"3	c #C4CED6",
"4	c #C2CBD4",
"5	c #C2CCD5",
"6	c #C0CAD2",
"7	c #BFCAD3",
"8	c #BDC7D1",
"9	c #BCC7D1",
"0	c #BBC5CF",
"a	c #B8C3CE",
"b	c #B8C3CD",
"c	c #B6C1CB",
"d	c #B6C1CC",
"e	c #91969A",
"  ",
".+",
"@#",
"$%",
"&*",
"==",
"--",
";>",
",,",
"')",
"!~",
"{]",
"^/",
"(_",
":<",
"[[",
"}|",
"11",
"23",
"45",
"67",
"89",
"00",
"ab",
"cd",
"ee"};
