/* XPM */
static char * title_3_inactive_xpm[] = {
"2 26 42 1",
" 	c #FEFFFF",
".	c #FEFEFF",
"+	c #FAFDFF",
"@	c #F7FCFF",
"#	c #F8FCFF",
"$	c #F4FAFF",
"%	c #F5FAFF",
"&	c #F2F9FF",
"*	c #EFF8FF",
"=	c #EEF7FF",
"-	c #ECF6FF",
";	c #E9F5FF",
">	c #E6F3FF",
",	c #E6F4FF",
"'	c #E3F2FF",
")	c #E2F1FF",
"!	c #E0F0FF",
"~	c #DDEFFF",
"{	c #DCEFFF",
"]	c #D9EEFF",
"^	c #D7ECFF",
"/	c #D7EDFF",
"(	c #D4ECFF",
"_	c #D5EBFF",
":	c #D1EAFF",
"<	c #D2EAFF",
"[	c #CFE8FF",
"}	c #CFE9FF",
"|	c #CBE6FF",
"1	c #CBE7FF",
"2	c #C9E5FF",
"3	c #C8E5FF",
"4	c #C5E4FF",
"5	c #C6E4FF",
"6	c #C2E3FF",
"7	c #BFE2FF",
"8	c #C0E1FF",
"9	c #BDE0FF",
"0	c #B9DEFF",
"a	c #B9DFFF",
"b	c #B6DDFF",
"c	c #E7EEF5",
" .",
"++",
"@#",
"$%",
"&&",
"*=",
"--",
";;",
">,",
"')",
"!!",
"~{",
"]]",
"^/",
"(_",
":<",
"[}",
"|1",
"23",
"45",
"66",
"78",
"99",
"0a",
"bb",
"cc"};
