/* XPM */
static char * top_right_active_xpm[] = {
"8 26 96 2",
"  	c None",
". 	c #F1F3F4",
"+ 	c #F1F3F5",
"@ 	c #EEF0F2",
"# 	c #EDF0F2",
"$ 	c #EBEEF1",
"% 	c #EBEFF1",
"& 	c #ECEEF0",
"* 	c #ECEFF1",
"= 	c #ECEEF1",
"- 	c #E9EDEF",
"; 	c #E9ECEF",
"> 	c #EAEDEF",
", 	c #E7EAED",
"' 	c #E7EBEE",
") 	c #E7EBED",
"! 	c #E6EBEE",
"~ 	c #E4E8EC",
"{ 	c #E4E8EB",
"] 	c #E4E9EB",
"^ 	c #E5E9EC",
"/ 	c #E2E6EA",
"( 	c #E2E7EA",
"_ 	c #E2E6E9",
": 	c #DFE4E9",
"< 	c #E0E5E9",
"[ 	c #E0E4E8",
"} 	c #E0E4E9",
"| 	c #E0E5E8",
"1 	c #DFE5E8",
"2 	c #DDE2E6",
"3 	c #DEE2E6",
"4 	c #DDE2E7",
"5 	c #DEE3E7",
"6 	c #DAE0E5",
"7 	c #DAE1E5",
"8 	c #DBE0E5",
"9 	c #DBE1E5",
"0 	c #D8DFE3",
"a 	c #D8DEE4",
"b 	c #D8DEE3",
"c 	c #D9DEE4",
"d 	c #D8DFE4",
"e 	c #D5DCE2",
"f 	c #D5DBE2",
"g 	c #D5DCE1",
"h 	c #D6DCE1",
"i 	c #D5DBE1",
"j 	c #D3DAE0",
"k 	c #D2DADF",
"l 	c #D3DADF",
"m 	c #D2DAE0",
"n 	c #D1D8DE",
"o 	c #D0D8DE",
"p 	c #D1D7DE",
"q 	c #CED6DC",
"r 	c #CFD5DC",
"s 	c #CFD6DC",
"t 	c #CED5DD",
"u 	c #CCD3DB",
"v 	c #CCD3DA",
"w 	c #CBD4DA",
"x 	c #CCD4DB",
"y 	c #CBD4DB",
"z 	c #C9D2D9",
"A 	c #CAD2DA",
"B 	c #CAD2D9",
"C 	c #C7CFD7",
"D 	c #C7D0D8",
"E 	c #C7CFD8",
"F 	c #C7D0D7",
"G 	c #C5CED6",
"H 	c #C5CDD6",
"I 	c #C4CED6",
"J 	c #C4CDD6",
"K 	c #C4CDD5",
"L 	c #C3CCD4",
"M 	c #C2CBD4",
"N 	c #C2CCD4",
"O 	c #BFC9D2",
"P 	c #BFCAD2",
"Q 	c #C0C9D2",
"R 	c #BDC7D0",
"S 	c #BDC7D1",
"T 	c #BCC7D1",
"U 	c #BAC5CF",
"V 	c #BAC5CE",
"W 	c #BBC5CF",
"X 	c #BAC6CE",
"Y 	c #B8C3CD",
"Z 	c #B8C4CD",
"` 	c #B6C1CC",
" .	c #B6C1CB",
"..	c #B5C1CC",
"+.	c #B5C1CB",
"@.	c #91969A",
". + +           ",
"@ @ @ @ #       ",
"$ % & * = =     ",
"- ; ; - ; > -   ",
", , ' , ) ) !   ",
"~ { ] ^ ~ { ~ { ",
"/ / / / ( ( _ ( ",
": < [ [ } [ | 1 ",
"2 3 4 5 2 4 2 2 ",
"6 7 8 6 8 8 8 9 ",
"0 a b c d 0 b 0 ",
"e e f g g h e i ",
"j j k j l j l m ",
"n o n p n n n n ",
"q q r q q q s t ",
"u v w u x y x w ",
"z z A B B B z B ",
"C D D D E E F D ",
"G H I I J K I I ",
"L M N N N N N M ",
"O P O P O Q O O ",
"R R S R R T S R ",
"U V V W X U W V ",
"Y Y Y Y Y Y Z Y ",
"`  ... . .+.+. .",
"@.@.@.@.@.@.@.@."};
