/* XPM */
static char * top_left_inactive_xpm[] = {
"8 26 83 1",
" 	c None",
".	c #FDFFFF",
"+	c #FDFEFF",
"@	c #FAFDFF",
"#	c #FBFDFF",
"$	c #F7FBFF",
"%	c #F8FBFF",
"&	c #F8FCFF",
"*	c #F7FCFF",
"=	c #F5FAFF",
"-	c #F4FAFF",
";	c #F5FBFF",
">	c #F2F9FF",
",	c #F2F8FF",
"'	c #F1F9FF",
")	c #EFF7FF",
"!	c #EEF7FF",
"~	c #EFF8FF",
"{	c #EEF8FF",
"]	c #EBF6FF",
"^	c #ECF5FF",
"/	c #ECF6FF",
"(	c #E8F5FF",
"_	c #E9F4FF",
":	c #E8F4FF",
"<	c #E9F5FF",
"[	c #E5F3FF",
"}	c #E6F3FF",
"|	c #E5F4FF",
"1	c #E2F1FF",
"2	c #E3F2FF",
"3	c #E2F2FF",
"4	c #DFF0FF",
"5	c #DFF1FF",
"6	c #E0F1FF",
"7	c #E0F0FF",
"8	c #DDEFFF",
"9	c #DCEFFF",
"0	c #DAEEFF",
"a	c #D9EEFF",
"b	c #D9EDFF",
"c	c #DAEDFF",
"d	c #D7EDFF",
"e	c #D7ECFF",
"f	c #D6ECFF",
"g	c #D4EBFF",
"h	c #D4EAFF",
"i	c #D3EBFF",
"j	c #D1E9FF",
"k	c #D1EAFF",
"l	c #D0E9FF",
"m	c #CEE8FF",
"n	c #CEE7FF",
"o	c #CDE8FF",
"p	c #CAE7FF",
"q	c #CBE7FF",
"r	c #CBE6FF",
"s	c #CAE6FF",
"t	c #C8E5FF",
"u	c #C7E6FF",
"v	c #C7E5FF",
"w	c #C5E4FF",
"x	c #C5E3FF",
"y	c #C1E2FF",
"z	c #C2E3FF",
"A	c #C2E2FF",
"B	c #C1E3FF",
"C	c #BEE1FF",
"D	c #BFE1FF",
"E	c #BFE0FF",
"F	c #BCE0FF",
"G	c #BBE0FF",
"H	c #BCDFFF",
"I	c #B9DEFF",
"J	c #B8DEFF",
"K	c #B9DFFF",
"L	c #B6DDFF",
"M	c #B5DDFF",
"N	c #B6DCFF",
"O	c #B2DBFF",
"P	c #B3DCFF",
"Q	c #B3DBFF",
"R	c #B2DCFF",
"     .++",
"   @@@#@",
"  $%&*%*",
" ====-;;",
" >>,>>''",
")!)~!{~~",
"]^/]/]]]",
"(_:<(<(<",
"[}}[||}[",
"12322212",
"45676764",
"89999989",
"0abcc0cc",
"dedfeffe",
"ghiihhgg",
"jkkjlkjl",
"mnomooom",
"pqrrqrsq",
"ttuttttv",
"wwwwwwxw",
"yzAAABzA",
"CCCCDEDC",
"FGGHHHHG",
"IJIKJIII",
"LMMLLLNL",
"OPOPPQRQ"};
