/* XPM */
static char * top_right_inactive_xpm[] = {
"8 26 80 1",
" 	c None",
".	c #FDFEFF",
"+	c #FDFFFF",
"@	c #FAFDFF",
"#	c #FBFDFF",
"$	c #F7FCFF",
"%	c #F8FBFF",
"&	c #F8FCFF",
"*	c #F7FBFF",
"=	c #F5FBFF",
"-	c #F4FAFF",
";	c #F5FAFF",
">	c #F1F9FF",
",	c #F2F9FF",
"'	c #F2F8FF",
")	c #EFF8FF",
"!	c #EEF8FF",
"~	c #EEF7FF",
"{	c #EFF7FF",
"]	c #EBF6FF",
"^	c #ECF6FF",
"/	c #ECF5FF",
"(	c #E9F5FF",
"_	c #E8F5FF",
":	c #E8F4FF",
"<	c #E9F4FF",
"[	c #E5F3FF",
"}	c #E6F3FF",
"|	c #E5F4FF",
"1	c #E3F2FF",
"2	c #E2F1FF",
"3	c #E2F2FF",
"4	c #DFF0FF",
"5	c #E0F1FF",
"6	c #E0F0FF",
"7	c #DFF1FF",
"8	c #DCEFFF",
"9	c #DDEFFF",
"0	c #DAEDFF",
"a	c #DAEEFF",
"b	c #D9EDFF",
"c	c #D9EEFF",
"d	c #D7ECFF",
"e	c #D6ECFF",
"f	c #D7EDFF",
"g	c #D4EBFF",
"h	c #D4EAFF",
"i	c #D3EBFF",
"j	c #D0E9FF",
"k	c #D1E9FF",
"l	c #D1EAFF",
"m	c #CEE8FF",
"n	c #CDE8FF",
"o	c #CEE7FF",
"p	c #CBE7FF",
"q	c #CAE6FF",
"r	c #CBE6FF",
"s	c #CAE7FF",
"t	c #C7E5FF",
"u	c #C8E5FF",
"v	c #C7E6FF",
"w	c #C5E4FF",
"x	c #C5E3FF",
"y	c #C2E2FF",
"z	c #C2E3FF",
"A	c #C1E3FF",
"B	c #C1E2FF",
"C	c #BEE1FF",
"D	c #BFE1FF",
"E	c #BFE0FF",
"F	c #BBE0FF",
"G	c #BCDFFF",
"H	c #BCE0FF",
"I	c #B9DEFF",
"J	c #B8DEFF",
"K	c #B9DFFF",
"L	c #B6DDFF",
"M	c #B6DCFF",
"N	c #B5DDFF",
"O	c #E7EEF5",
"..+     ",
"@#@@@   ",
"$%$&%*  ",
"==-;;;; ",
">>,,',, ",
"))!~){~{",
"]]]^]^/]",
"(_(_(:<_",
"[}||[}}[",
"12111312",
"45656574",
"89888889",
"00a00bca",
"deedefdf",
"gghhiihg",
"jkljkllk",
"mnnnmnom",
"pqrprrps",
"tuuuuvuu",
"wxwwwwww",
"yzAyyyzB",
"CDEDCCCC",
"FGGGGFFH",
"IIIJKIJI",
"LMLLLNNL",
"OOOOOOOO"};
