/* XPM */
static char * top_left_active_xpm[] = {
"8 26 96 2",
"  	c None",
". 	c #F1F3F5",
"+ 	c #F1F3F4",
"@ 	c #EDF0F2",
"# 	c #EEF0F2",
"$ 	c #ECEEF1",
"% 	c #ECEFF1",
"& 	c #ECEEF0",
"* 	c #EBEFF1",
"= 	c #EBEEF1",
"- 	c #E9EDEF",
"; 	c #EAEDEF",
"> 	c #E9ECEF",
", 	c #E6EBEE",
"' 	c #E7EBED",
") 	c #E7EAED",
"! 	c #E7EBEE",
"~ 	c #E4E8EB",
"{ 	c #E4E8EC",
"] 	c #E5E9EC",
"^ 	c #E4E9EB",
"/ 	c #E2E7EA",
"( 	c #E2E6E9",
"_ 	c #E2E6EA",
": 	c #DFE5E8",
"< 	c #E0E5E8",
"[ 	c #E0E4E8",
"} 	c #E0E4E9",
"| 	c #E0E5E9",
"1 	c #DFE4E9",
"2 	c #DDE2E6",
"3 	c #DDE2E7",
"4 	c #DEE3E7",
"5 	c #DEE2E6",
"6 	c #DBE1E5",
"7 	c #DBE0E5",
"8 	c #DAE0E5",
"9 	c #DAE1E5",
"0 	c #D8DFE3",
"a 	c #D8DEE3",
"b 	c #D8DFE4",
"c 	c #D9DEE4",
"d 	c #D8DEE4",
"e 	c #D5DBE1",
"f 	c #D5DCE2",
"g 	c #D6DCE1",
"h 	c #D5DCE1",
"i 	c #D5DBE2",
"j 	c #D2DAE0",
"k 	c #D3DADF",
"l 	c #D3DAE0",
"m 	c #D2DADF",
"n 	c #D1D8DE",
"o 	c #D1D7DE",
"p 	c #D0D8DE",
"q 	c #CED5DD",
"r 	c #CFD6DC",
"s 	c #CED6DC",
"t 	c #CFD5DC",
"u 	c #CBD4DA",
"v 	c #CCD4DB",
"w 	c #CBD4DB",
"x 	c #CCD3DB",
"y 	c #CCD3DA",
"z 	c #CAD2D9",
"A 	c #C9D2D9",
"B 	c #CAD2DA",
"C 	c #C7D0D8",
"D 	c #C7D0D7",
"E 	c #C7CFD8",
"F 	c #C7CFD7",
"G 	c #C4CED6",
"H 	c #C4CDD5",
"I 	c #C4CDD6",
"J 	c #C5CDD6",
"K 	c #C5CED6",
"L 	c #C2CBD4",
"M 	c #C2CCD4",
"N 	c #C3CCD4",
"O 	c #BFC9D2",
"P 	c #C0C9D2",
"Q 	c #BFCAD2",
"R 	c #BDC7D0",
"S 	c #BDC7D1",
"T 	c #BCC7D1",
"U 	c #BAC5CE",
"V 	c #BBC5CF",
"W 	c #BAC5CF",
"X 	c #BAC6CE",
"Y 	c #B8C3CD",
"Z 	c #B8C4CD",
"` 	c #B6C1CB",
" .	c #B5C1CB",
"..	c #B5C1CC",
"+.	c #B6C1CC",
"@.	c #91969A",
"          . . + ",
"      @ # # # # ",
"    $ $ % & * = ",
"  - ; > - > > - ",
"  , ' ' ) ! ) ) ",
"~ { ~ { ] ^ ~ { ",
"/ ( / / _ _ _ _ ",
": < [ } [ [ | 1 ",
"2 2 3 2 4 3 5 2 ",
"6 7 7 7 8 7 9 8 ",
"0 a 0 b c a d 0 ",
"e f g h h i f f ",
"j k l k l m l l ",
"n n n n o n p n ",
"q r s s s t s s ",
"u v w v x u y x ",
"z A z z z B A A ",
"C D E E C C C F ",
"G G H I G G J K ",
"L M M M M M L N ",
"O O P O Q O Q O ",
"R S T R R S R R ",
"U V W X V U U W ",
"Y Z Y Y Y Y Y Y ",
"`  . .` ` ..` +.",
"@.@.@.@.@.@.@.@."};
